<svg width="265" height="148" viewBox="0 0 265 148" fill="none" xmlns="http://www.w3.org/2000/svg">
<mask id="mask0_115_12589" style="mask-type:alpha" maskUnits="userSpaceOnUse" x="0" y="0" width="265" height="148">
<rect x="0.5" width="264" height="148" rx="74" fill="#E6F0F7"/>
</mask>
<g mask="url(#mask0_115_12589)">
<rect x="0.5" width="264" height="148" rx="74" fill="#E6F0F7"/>
<path opacity="0.12" d="M206.572 138.788V137.909H205.168V132.818H204.865V137.909H200.997V138.788H199.793V135.479H198.001V138.788H196.16V139.555V140.188V140.849H196.733V142.092V143.8V144.621V146.555V147.376V149.31V150.131V150.791H192.798V150.556V149.546V148.414V147.404V146.273V145.263V144.131V143.121V141.989V140.979V139.848V138.838V137.706V136.696V135.564V134.554V133.423V132.412V131.281V130.271V129.14V128.13V126.998V125.988V124.856V123.846V122.715V121.704V120.573V119.563V118.431V117.421V116.29V115.279V114.148V113.138V112.007V110.996V109.865V108.397H191.362V106.655H179.704V108.397H178.33V109.865V110.996V112.007V113.138V114.148V115.279V116.29V117.421V118.431V119.563V120.573V121.704V122.715V123.846V124.856V125.988V126.998V128.13V129.14V130.271V131.281V132.412V133.423V134.554V135.564V136.696V137.706V138.838V139.848V140.979V141.989V143.121V144.131V145.263V146.273V147.404V148.414V149.546V150.556V150.791H173.019V129.651V127.021V125.696V125.348H165.112V119.053H163.991V125.348H161.224V122.152H156.348V125.348H153.646V125.696V127.021V129.651V150.791H150.668V150.416V148.284V146.113V143.981V141.811V139.679V137.508V135.376V133.205V131.073V128.902V126.77V124.6V122.468V120.297V118.165V115.994V113.862V111.691V109.559V107.389V105.257V103.086V100.954V98.7833V96.6512V94.3026H148.828V92.0512H146.108V85.2578H145.148V92.0512H140.454V89.8636H136.269V92.0512H134.052V94.3026H132.11V96.6512V98.7833V100.954V103.086V105.257V107.389V109.559V111.691V113.862V115.994V118.165V118.207H123.571V110.928H122.275V118.207H119.076V114.511H113.437V118.207H110.314V118.61V120.142V123.182V150.791H108.399V149.614V148.278V146.782V145.446V143.95V142.614V141.118V139.782V138.286V136.95V135.454V134.118V132.621V131.285V129.789V128.453V126.957V125.621V124.125V122.789V121.293V119.957V118.461V117.125V115.629V114.293V112.797V111.461V109.964V108.629V107.133V105.797V104.301V102.965V101.468V100.133V98.6363V97.3004V95.8044V94.4684V92.972V91.636V90.1401V88.1985H106.499V85.8963H91.0836V88.1985H89.2653V90.1401V91.636V92.972V94.4684V95.8044V97.3004V98.6363V100.133V101.468V102.965V104.301V105.797V107.133V108.629V109.964V111.461V112.797V114.293V115.629V117.125V118.461V119.957V121.293V122.789V124.125V125.621V126.957V128.453V129.789V131.285V132.621V134.118V135.454V136.95V138.286V139.782V141.118V142.614V143.95V145.446V146.782V148.278V149.614V150.791H85.8736V149.967V147.454V146.388V143.875V142.808V140.295V139.229V136.716V135.65V133.431V131.816H86.6165V130.958V130.135V129.139H84.9403V127.996H83.1162V121.383H82.7218V127.996H77.6979V129.139H76.1333V124.84H73.8055V129.139H71.4144V130.135V130.958V131.816H72.1573V133.431V135.65V136.716V139.229V140.295V142.808V143.875V146.388V147.454V149.967V150.791H68.7961V144.985V143.329V142.495V142.276H63.8176V138.312H63.1124V142.276H61.3705V140.263H58.3003V142.276H56.5994V142.495V143.329V144.985V150.791V171.047V183.253H207.863V150.791H207.29V150.131V149.31V147.376V146.555V144.621V143.8V142.092V140.849H207.863V140.188V139.555V138.788H206.572Z" fill="#996B39"/>
<path d="M209.982 60.2178C209.982 60.2178 194.143 60.0733 196.935 73.7462C198.163 79.759 206.515 87.6114 206.515 87.6114H209.982H213.448C213.448 87.6114 221.8 79.759 223.028 73.7462C225.821 60.0733 209.982 60.2178 209.982 60.2178Z" fill="white"/>
<path d="M209.982 60.2178C209.982 60.2178 209.572 60.214 208.896 60.2647C207.686 61.259 205.965 64.2886 206.466 73.5209C206.798 79.629 209.052 87.6056 209.052 87.6056H209.988H210.923C210.923 87.6056 213.178 79.629 213.509 73.5209C214.01 64.2915 212.29 61.2609 211.08 60.2657C210.397 60.214 209.982 60.2178 209.982 60.2178Z" fill="#F43F24"/>
<path d="M208.18 87.6107C205.802 84.0035 203.024 79.0623 202.359 74.8287C201.18 67.3286 203.355 63.0611 206.238 60.6318C205.557 60.7701 204.825 60.9542 204.08 61.1993C200.911 63.2453 198.362 67.0154 199.624 73.9654C200.498 78.7785 204.985 84.6401 207.491 87.6107H208.18Z" fill="#B71D15"/>
<path d="M197.983 73.7865C196.701 67.1966 199.35 63.6662 202.589 61.7744C198.909 63.4183 195.516 66.7983 196.935 73.7464C198.163 79.7592 206.515 87.6116 206.515 87.6116H206.861C204.824 85.4704 198.994 78.9762 197.983 73.7865Z" fill="#B71D15"/>
<path d="M211.783 87.6107C214.161 84.0035 216.939 79.0623 217.605 74.8287C218.783 67.3286 216.609 63.0611 213.726 60.6318C214.407 60.7701 215.139 60.9542 215.884 61.1993C219.053 63.2453 221.602 67.0154 220.34 73.9654C219.466 78.7785 214.979 84.6401 212.473 87.6107H211.783Z" fill="#B71D15"/>
<path d="M221.981 73.7865C223.263 67.1966 220.614 63.6662 217.375 61.7744C221.056 63.4183 224.448 66.7983 223.029 73.7464C221.801 79.7592 213.449 87.6116 213.449 87.6116H213.104C215.14 85.4704 220.97 78.9762 221.981 73.7865Z" fill="#B71D15"/>
<path d="M206.997 88.6943L208.345 93.6535" stroke="#BFB19D" stroke-width="0.109333" stroke-miterlimit="10"/>
<path d="M208.658 88.4062L209.404 93.5814" stroke="#BFB19D" stroke-width="0.109333" stroke-miterlimit="10"/>
<path d="M212.967 88.6943L211.619 93.6535" stroke="#BFB19D" stroke-width="0.109333" stroke-miterlimit="10"/>
<path d="M211.306 88.4062L210.56 93.5814" stroke="#BFB19D" stroke-width="0.109333" stroke-miterlimit="10"/>
<path d="M211.883 94.0744H208.056C207.877 94.0744 207.732 93.9289 207.732 93.7496C207.732 93.5703 207.877 93.4248 208.056 93.4248H211.883C212.063 93.4248 212.208 93.5703 212.208 93.7496C212.208 93.9289 212.063 94.0744 211.883 94.0744Z" fill="white"/>
<path d="M211.134 96.8916H208.77C208.575 96.8916 208.417 96.7341 208.417 96.5393V94.0752H211.487V96.5393C211.486 96.7341 211.329 96.8916 211.134 96.8916Z" fill="#F43F24"/>
<path d="M213.436 87.6113H206.516V88.6945H213.436V87.6113Z" fill="white"/>
<path d="M47.5956 105.865C47.5956 105.865 28.9989 105.696 32.2774 121.749C33.7192 128.809 43.5258 138.028 43.5258 138.028H47.5956H51.6653C51.6653 138.028 61.4719 128.809 62.9137 121.749C66.1923 105.696 47.5956 105.865 47.5956 105.865Z" fill="white"/>
<path d="M47.5954 105.865C47.5954 105.865 47.114 105.861 46.3208 105.92C44.8998 107.088 42.8789 110.645 43.4672 121.485C43.8563 128.656 46.5035 138.021 46.5035 138.021H47.6022H48.7008C48.7008 138.021 51.3481 128.656 51.7372 121.485C52.3254 110.648 50.306 107.09 48.885 105.921C48.0826 105.861 47.5954 105.865 47.5954 105.865Z" fill="#6BA6BF"/>
<path d="M45.4806 138.028C42.6878 133.793 39.4267 127.991 38.6451 123.021C37.2613 114.215 39.8148 109.204 43.1992 106.353C42.3997 106.514 41.5403 106.731 40.6655 107.019C36.9452 109.421 33.9518 113.848 35.4337 122.008C36.4599 127.659 41.7284 134.541 44.6705 138.029H45.4806V138.028Z" fill="#336A89"/>
<path d="M33.5077 121.794C32.0016 114.057 35.1119 109.912 38.9149 107.691C34.5938 109.621 30.611 113.59 32.2766 121.748C33.7184 128.807 43.525 138.027 43.525 138.027H43.9301C41.539 135.513 34.6938 127.887 33.5077 121.794Z" fill="#336A89"/>
<path d="M49.7102 138.028C52.503 133.793 55.7641 127.991 56.5457 123.021C57.9295 114.215 55.376 109.204 51.9916 106.353C52.791 106.514 53.6504 106.731 54.5253 107.019C58.2456 109.421 61.2389 113.848 59.7575 122.008C58.7314 127.659 53.4629 134.541 50.5208 138.029H49.7102V138.028Z" fill="#336A89"/>
<path d="M61.6827 121.794C63.1888 114.057 60.0785 109.912 56.2756 107.691C60.5967 109.621 64.5799 113.59 62.9138 121.748C61.472 128.807 51.6654 138.027 51.6654 138.027H51.2604C53.6515 135.513 60.4966 127.887 61.6827 121.794Z" fill="#336A89"/>
<path d="M44.0905 139.3L45.6734 145.122" stroke="#BFB19D" stroke-width="0.128376" stroke-miterlimit="10"/>
<path d="M46.0406 138.961L46.917 145.037" stroke="#BFB19D" stroke-width="0.128376" stroke-miterlimit="10"/>
<path d="M51.1004 139.3L49.5175 145.122" stroke="#BFB19D" stroke-width="0.128376" stroke-miterlimit="10"/>
<path d="M49.1499 138.961L48.2736 145.037" stroke="#BFB19D" stroke-width="0.128376" stroke-miterlimit="10"/>
<path d="M49.8279 145.616H45.3342C45.1235 145.616 44.9529 145.446 44.9529 145.235C44.9529 145.024 45.124 144.854 45.3342 144.854H49.8279C50.0386 144.854 50.2093 145.024 50.2093 145.235C50.2097 145.446 50.0386 145.616 49.8279 145.616Z" fill="white"/>
<path d="M48.9479 148.924H46.172C45.9434 148.924 45.7583 148.739 45.7583 148.51V145.617H49.3616V148.51C49.3621 148.739 49.1765 148.924 48.9479 148.924Z" fill="#6BA6BF"/>
<path d="M51.6512 138.027H43.5256V139.299H51.6512V138.027Z" fill="white"/>
<path d="M112.801 47.8193H182.708L172.549 44.4799C172.549 44.4799 171.242 37.9919 167.822 37.9919C164.401 37.9919 162.088 41.9993 162.088 41.9993C162.088 41.9993 162.189 28.5459 153.438 28.5459C144.687 28.5459 142.776 41.7132 142.776 41.7132C142.776 41.7132 140.664 35.1295 135.936 35.1295C131.209 35.1295 129.398 43.5262 129.398 43.5262L112.801 47.8193Z" fill="white"/>
<path d="M32.8044 101.267H69.6933L64.3326 99.5049C64.3326 99.5049 63.6423 96.0814 61.838 96.0814C60.0332 96.0814 58.8128 98.1961 58.8128 98.1961C58.8128 98.1961 58.8659 91.0967 54.248 91.0967C49.6302 91.0967 48.6219 98.0448 48.6219 98.0448C48.6219 98.0448 47.5073 94.5705 45.0128 94.5705C42.5182 94.5705 41.5627 99.0013 41.5627 99.0013L32.8044 101.267Z" fill="white"/>
<path d="M175.789 187.23C175.789 187.23 197.542 174.596 210.505 151.241C216.102 140.887 187.221 148.184 175.789 187.23Z" fill="#2D9E8B"/>
<path d="M210.95 147.938C210.95 147.938 193.702 158.031 175.456 184.944" stroke="#26490F" stroke-width="0.34332" stroke-miterlimit="10"/>
<path d="M62.0919 16.5895C56.1221 33.9155 34.7447 111.429 94.2087 197.33C100.745 195.997 100.745 195.997 100.745 195.997C100.745 195.997 100.745 195.997 107.28 194.664C128.366 92.3398 78.3473 29.3836 66.0708 15.7779C64.8697 14.4463 62.6763 14.8939 62.0919 16.5895Z" fill="#F4B251"/>
<mask id="mask1_115_12589" style="mask-type:luminance" maskUnits="userSpaceOnUse" x="53" y="15" width="60" height="183">
<path d="M62.0919 16.5895C56.1221 33.9155 34.7447 111.429 94.2087 197.33C100.745 195.997 100.745 195.997 100.745 195.997C100.745 195.997 100.745 195.997 107.28 194.664C128.366 92.3398 78.3473 29.3836 66.0708 15.7779C64.8697 14.4463 62.6763 14.8939 62.0919 16.5895Z" fill="white"/>
</mask>
<g mask="url(#mask1_115_12589)">
<path d="M23.6003 60.0641L33.7206 69.3066L39.4154 56.8392L49.5376 66.0812L55.2319 53.6143L65.3536 62.8564L71.0494 50.3894L81.1721 59.6315L86.8663 47.1641L96.99 56.4061L102.687 43.9382L112.812 53.1798L118.51 40.7119" stroke="#F43F24" stroke-width="6.64682" stroke-miterlimit="10"/>
<path d="M25.7585 70.6481L35.8788 79.8906L41.5731 67.4232L51.6953 76.6652L57.3901 64.1983L67.5118 73.4408L73.2071 60.9734L83.3303 70.2155L89.0245 57.7481L99.1477 66.9901L104.845 54.5227L114.97 63.7638L120.669 51.2959" stroke="white" stroke-width="6.64682" stroke-miterlimit="10"/>
<path d="M36.5856 123.748L46.7058 132.99L52.4001 120.523L62.5223 129.765L68.2171 117.298L78.3388 126.54L84.0341 114.073L94.1573 123.315L99.8516 110.848L109.975 120.09L115.672 107.622L125.797 116.863L131.496 104.396" stroke="#F43F24" stroke-width="6.64682" stroke-miterlimit="10"/>
<path d="M38.743 134.331L48.8633 143.573L54.5581 131.106L64.6803 140.348L70.3746 127.881L80.4963 137.123L86.1921 124.656L96.3148 133.898L102.009 121.431L112.133 130.673L117.83 118.205L127.955 127.446L133.653 114.979" stroke="white" stroke-width="6.64682" stroke-miterlimit="10"/>
</g>
<path opacity="0.54" d="M99.6268 73.417C109.549 100.351 116.061 135.869 109.885 179.122C99.577 179.545 97.0646 168.022 96.2975 163.956C95.4734 159.588 93.0364 122.988 93.0364 122.988L84.8611 139.216C84.8611 139.216 77.8173 143.164 74.6074 141.214C71.3975 139.265 81.2877 100.218 85.8428 89.5907C89.2184 81.7141 96.224 75.9009 99.6268 73.417Z" fill="#8E5A1C"/>
<path d="M123.748 195.575C123.748 195.575 119.705 171.436 111.753 164.5C103.8 157.564 104.338 165.343 102.833 169.791C101.329 174.239 97.9989 164.436 94.4062 155.726C90.8135 147.017 83.5555 148.116 84.4318 156.304C85.3082 164.492 82.5811 158.55 75.1864 151.113C67.7912 143.677 58.6236 150.001 69.279 159.334C79.9343 168.667 86.4981 175.925 77.6031 172.916C68.7081 169.907 55.8782 176.007 71.4444 181.274C87.0105 186.54 102.192 189.309 96.486 190.999C90.7801 192.69 76.5775 200.865 90.6723 203.156C104.767 205.445 117.01 208.165 123.748 195.575Z" fill="#168272"/>
<path d="M183.175 175.701H175.75V91.4924C175.75 89.442 177.413 87.7803 179.462 87.7803C181.513 87.7803 183.175 89.4425 183.175 91.4924V175.701H183.175Z" fill="#336A89"/>
<path d="M175.75 142.499L183.175 141.954V99.6416L175.75 100.67V142.499Z" fill="#1E4759"/>
<path d="M199.385 107.985L160.687 110.677L159.978 100.485L198.676 97.793L202.693 102.634L199.385 107.985Z" fill="#336A89"/>
<path d="M159.978 100.485L161.326 98.3291L161.562 101.715L159.978 100.485Z" fill="#336A89"/>
<path d="M200.733 105.83L162.035 108.522L161.326 98.3294L200.025 95.6377L204.042 100.479L200.733 105.83Z" fill="#6BA6BF"/>
<path d="M169.712 104.984L169.419 100.776L170.841 100.677C171.171 100.654 171.445 100.695 171.663 100.799C171.882 100.903 172.049 101.051 172.165 101.246C172.28 101.44 172.346 101.661 172.363 101.909C172.381 102.157 172.346 102.386 172.258 102.596C172.173 102.805 172.029 102.978 171.828 103.113C171.626 103.247 171.362 103.325 171.035 103.348L170.016 103.418L169.984 102.966L170.987 102.897C171.213 102.881 171.392 102.829 171.523 102.742C171.655 102.654 171.747 102.542 171.799 102.405C171.853 102.266 171.874 102.112 171.862 101.944C171.85 101.775 171.808 101.627 171.736 101.498C171.665 101.37 171.558 101.273 171.414 101.207C171.271 101.14 171.084 101.114 170.856 101.13L169.96 101.192L170.221 104.949L169.712 104.984ZM173.128 104.746L172.593 104.784L173.846 100.468L174.372 100.431L176.21 104.532L175.676 104.569L174.172 101.114L174.139 101.116L173.128 104.746ZM173.211 103.089L175.364 102.939L175.395 103.391L173.242 103.541L173.211 103.089ZM176.865 104.486L176.572 100.278L177.994 100.179C178.325 100.156 178.599 100.197 178.816 100.302C179.036 100.405 179.203 100.554 179.318 100.748C179.434 100.942 179.5 101.163 179.517 101.411C179.534 101.659 179.499 101.888 179.412 102.098C179.326 102.308 179.183 102.48 178.981 102.615C178.78 102.749 178.516 102.827 178.188 102.85L177.169 102.921L177.138 102.469L178.141 102.399C178.367 102.383 178.545 102.332 178.677 102.244C178.808 102.156 178.9 102.044 178.953 101.907C179.007 101.768 179.027 101.615 179.016 101.446C179.004 101.278 178.962 101.129 178.89 101.001C178.819 100.872 178.712 100.775 178.568 100.709C178.424 100.642 178.238 100.617 178.009 100.632L177.114 100.695L177.375 104.451L176.865 104.486ZM183.007 99.8306L183.517 99.7951L183.71 102.581C183.73 102.869 183.68 103.131 183.561 103.366C183.442 103.6 183.265 103.791 183.028 103.938C182.792 104.084 182.509 104.168 182.179 104.191C181.849 104.214 181.557 104.17 181.302 104.058C181.048 103.945 180.845 103.781 180.694 103.565C180.544 103.349 180.459 103.097 180.439 102.809L180.245 100.023L180.755 99.9872L180.946 102.732C180.96 102.938 181.018 103.118 181.12 103.272C181.221 103.424 181.359 103.541 181.532 103.621C181.707 103.699 181.911 103.731 182.146 103.714C182.38 103.698 182.578 103.639 182.74 103.537C182.902 103.433 183.023 103.299 183.1 103.134C183.18 102.967 183.212 102.781 183.198 102.576L183.007 99.8306ZM184.534 99.7243L185.142 99.682L186.816 103.076L186.865 103.072L188.052 99.4796L188.66 99.4373L188.953 103.645L188.476 103.679L188.254 100.481L188.213 100.484L187.12 103.773L186.66 103.805L185.122 100.699L185.081 100.702L185.304 103.899L184.827 103.932L184.534 99.7243ZM190.147 103.562L189.613 103.6L190.865 99.2839L191.391 99.2473L193.229 103.348L192.695 103.385L191.191 99.9302L191.158 99.9325L190.147 103.562ZM190.23 101.905L192.384 101.755L192.415 102.207L190.262 102.357L190.23 101.905Z" fill="white"/>
<path d="M199.351 138.108L160.636 140.539L159.996 130.342L198.711 127.911L202.696 132.779L199.351 138.108Z" fill="#336A89"/>
<path d="M159.996 130.341L161.358 128.194L161.571 131.582L159.996 130.341Z" fill="#336A89"/>
<path d="M200.714 135.959L161.998 138.39L161.358 128.193L200.074 125.763L204.059 130.631L200.714 135.959Z" fill="#6BA6BF"/>
<path d="M171.379 131.461C171.341 131.254 171.231 131.099 171.048 130.995C170.866 130.891 170.647 130.847 170.392 130.863C170.205 130.875 170.044 130.915 169.908 130.984C169.774 131.053 169.671 131.143 169.599 131.253C169.529 131.363 169.498 131.486 169.507 131.62C169.514 131.732 169.546 131.827 169.605 131.905C169.665 131.981 169.739 132.043 169.827 132.091C169.915 132.138 170.007 132.175 170.103 132.204C170.198 132.231 170.285 132.252 170.365 132.268L170.799 132.356C170.911 132.378 171.035 132.41 171.173 132.452C171.312 132.495 171.445 132.556 171.574 132.636C171.704 132.714 171.814 132.819 171.904 132.949C171.993 133.08 172.044 133.244 172.056 133.441C172.071 133.669 172.024 133.878 171.916 134.069C171.81 134.26 171.646 134.417 171.426 134.539C171.206 134.662 170.935 134.733 170.612 134.754C170.31 134.772 170.046 134.74 169.819 134.657C169.594 134.573 169.413 134.448 169.276 134.282C169.14 134.116 169.057 133.918 169.026 133.689L169.552 133.656C169.576 133.814 169.637 133.942 169.737 134.041C169.838 134.138 169.962 134.207 170.109 134.249C170.258 134.289 170.415 134.304 170.583 134.293C170.777 134.281 170.95 134.238 171.101 134.166C171.252 134.091 171.369 133.995 171.452 133.875C171.535 133.754 171.572 133.617 171.562 133.464C171.554 133.324 171.507 133.213 171.424 133.13C171.34 133.047 171.233 132.982 171.102 132.936C170.971 132.889 170.83 132.849 170.68 132.818L170.152 132.702C169.818 132.628 169.549 132.51 169.346 132.346C169.143 132.183 169.033 131.959 169.015 131.676C169 131.44 169.051 131.23 169.167 131.047C169.285 130.862 169.449 130.714 169.659 130.603C169.871 130.491 170.111 130.426 170.38 130.41C170.651 130.392 170.895 130.426 171.113 130.51C171.33 130.593 171.505 130.714 171.639 130.873C171.774 131.033 171.852 131.218 171.872 131.43L171.379 131.461ZM172.966 134.531L172.702 130.321L175.242 130.162L175.271 130.614L173.24 130.742L173.329 132.164L175.229 132.045L175.257 132.497L173.358 132.616L173.448 134.047L175.511 133.917L175.54 134.37L172.966 134.531ZM176.161 130.104L176.77 130.066L178.42 133.47L178.469 133.467L179.68 129.883L180.289 129.845L180.553 134.055L180.076 134.085L179.876 130.886L179.834 130.889L178.72 134.17L178.259 134.199L176.743 131.083L176.702 131.085L176.903 134.284L176.426 134.314L176.161 130.104ZM181.576 133.99L181.311 129.781L183.852 129.621L183.88 130.073L181.849 130.201L181.939 131.623L183.838 131.504L183.866 131.956L181.967 132.075L182.057 133.506L184.121 133.376L184.149 133.829L181.576 133.99ZM185.035 133.773L184.771 129.563L186.193 129.474C186.522 129.453 186.795 129.492 187.014 129.592C187.232 129.689 187.397 129.832 187.511 130.02C187.625 130.209 187.689 130.427 187.705 130.675C187.72 130.923 187.684 131.146 187.594 131.344C187.505 131.543 187.359 131.703 187.156 131.826C186.953 131.947 186.689 132.018 186.362 132.039L185.211 132.111L185.182 131.651L186.317 131.579C186.542 131.565 186.721 131.521 186.854 131.447C186.988 131.372 187.082 131.273 187.136 131.148C187.191 131.022 187.214 130.875 187.203 130.706C187.193 130.538 187.152 130.392 187.081 130.27C187.01 130.148 186.903 130.057 186.76 129.997C186.618 129.936 186.432 129.913 186.205 129.927L185.309 129.983L185.545 133.741L185.035 133.773ZM186.898 131.757L188.053 133.583L187.461 133.621L186.322 131.794L186.898 131.757ZM191.236 129.157L191.746 129.125L191.921 131.912C191.939 132.2 191.887 132.461 191.766 132.696C191.646 132.929 191.467 133.119 191.23 133.264C190.993 133.408 190.709 133.491 190.379 133.512C190.048 133.532 189.756 133.486 189.503 133.373C189.25 133.258 189.048 133.092 188.898 132.876C188.75 132.658 188.666 132.406 188.648 132.118L188.473 129.331L188.983 129.299L189.156 132.045C189.168 132.25 189.225 132.431 189.326 132.585C189.426 132.738 189.563 132.856 189.736 132.937C189.91 133.017 190.114 133.049 190.349 133.035C190.583 133.02 190.782 132.962 190.944 132.861C191.107 132.759 191.228 132.625 191.307 132.461C191.388 132.295 191.421 132.109 191.408 131.903L191.236 129.157Z" fill="white"/>
<path d="M163.694 123.513L202.476 124.404L202.71 114.19L163.929 113.299L160.141 118.322L163.694 123.513Z" fill="#336A89"/>
<path d="M202.71 114.191L201.263 112.1L201.186 115.493L202.71 114.191Z" fill="#336A89"/>
<path d="M162.247 121.423L201.029 122.314L201.263 112.1L162.482 111.209L158.694 116.232L162.247 121.423Z" fill="#6BA6BF"/>
<path d="M171.101 118.949L171.198 114.732L172.672 114.765C172.966 114.772 173.207 114.829 173.396 114.935C173.584 115.039 173.723 115.178 173.812 115.35C173.902 115.521 173.944 115.709 173.94 115.915C173.935 116.097 173.9 116.245 173.832 116.362C173.767 116.479 173.681 116.57 173.575 116.636C173.47 116.703 173.357 116.751 173.236 116.781L173.235 116.822C173.364 116.833 173.492 116.882 173.621 116.967C173.749 117.052 173.856 117.173 173.94 117.329C174.024 117.484 174.064 117.673 174.059 117.896C174.054 118.107 174.002 118.296 173.902 118.463C173.802 118.63 173.647 118.76 173.437 118.854C173.228 118.948 172.957 118.991 172.625 118.984L171.101 118.949ZM171.622 118.507L172.635 118.531C172.969 118.538 173.207 118.479 173.35 118.353C173.494 118.226 173.569 118.07 173.573 117.885C173.576 117.742 173.543 117.609 173.473 117.487C173.403 117.363 173.301 117.263 173.169 117.187C173.036 117.11 172.877 117.069 172.693 117.065L171.656 117.041L171.622 118.507ZM171.666 116.596L172.613 116.618C172.767 116.622 172.906 116.595 173.031 116.537C173.157 116.48 173.258 116.397 173.334 116.289C173.41 116.181 173.45 116.052 173.454 115.904C173.458 115.719 173.397 115.56 173.271 115.428C173.145 115.295 172.942 115.225 172.662 115.218L171.698 115.196L171.666 116.596ZM174.872 119.035L174.969 114.818L176.394 114.851C176.723 114.859 176.993 114.921 177.201 115.039C177.41 115.155 177.563 115.311 177.66 115.509C177.757 115.706 177.803 115.929 177.797 116.177C177.792 116.426 177.736 116.645 177.63 116.835C177.524 117.024 177.365 117.172 177.152 117.277C176.939 117.38 176.67 117.429 176.343 117.421L175.19 117.394L175.201 116.933L176.337 116.959C176.562 116.965 176.744 116.936 176.883 116.873C177.023 116.81 177.126 116.719 177.19 116.6C177.256 116.479 177.291 116.334 177.295 116.166C177.299 115.997 177.271 115.848 177.21 115.721C177.15 115.593 177.052 115.493 176.915 115.421C176.777 115.348 176.595 115.309 176.367 115.304L175.469 115.283L175.383 119.047L174.872 119.035ZM176.901 117.187L177.895 119.105L177.302 119.091L176.324 117.173L176.901 117.187ZM182.188 117.094C182.177 117.539 182.088 117.921 181.92 118.242C181.752 118.562 181.526 118.807 181.242 118.976C180.958 119.145 180.636 119.226 180.276 119.217C179.917 119.209 179.599 119.114 179.323 118.932C179.047 118.75 178.832 118.495 178.679 118.167C178.526 117.839 178.455 117.453 178.465 117.008C178.475 116.564 178.564 116.181 178.732 115.861C178.9 115.541 179.126 115.296 179.411 115.127C179.695 114.957 180.016 114.877 180.376 114.885C180.736 114.893 181.054 114.989 181.33 115.171C181.606 115.353 181.82 115.608 181.973 115.935C182.126 116.263 182.198 116.649 182.188 117.094ZM181.694 117.083C181.702 116.717 181.648 116.408 181.532 116.154C181.416 115.9 181.257 115.706 181.053 115.572C180.85 115.438 180.62 115.369 180.365 115.363C180.11 115.357 179.877 115.416 179.667 115.54C179.458 115.665 179.289 115.851 179.162 116.099C179.035 116.348 178.967 116.655 178.959 117.02C178.951 117.385 179.004 117.694 179.119 117.948C179.235 118.202 179.395 118.396 179.598 118.53C179.802 118.664 180.032 118.734 180.287 118.74C180.543 118.746 180.775 118.686 180.984 118.562C181.194 118.438 181.362 118.251 181.489 118.003C181.617 117.755 181.685 117.448 181.694 117.083ZM183.095 115.005L183.704 115.019L185.057 118.553L185.106 118.554L186.62 115.086L187.229 115.1L187.132 119.317L186.655 119.306L186.728 116.102L186.687 116.102L185.296 119.275L184.835 119.265L183.59 116.03L183.549 116.029L183.476 119.233L182.998 119.222L183.095 115.005ZM191.763 117.314C191.753 117.759 191.664 118.142 191.496 118.462C191.327 118.782 191.101 119.027 190.817 119.196C190.533 119.365 190.211 119.446 189.852 119.438C189.492 119.429 189.174 119.334 188.898 119.152C188.622 118.97 188.408 118.715 188.255 118.387C188.101 118.06 188.03 117.673 188.04 117.229C188.05 116.784 188.14 116.401 188.308 116.081C188.476 115.761 188.702 115.516 188.986 115.347C189.27 115.178 189.592 115.097 189.951 115.105C190.311 115.114 190.629 115.209 190.905 115.391C191.181 115.573 191.395 115.828 191.549 116.156C191.702 116.483 191.773 116.87 191.763 117.314ZM191.269 117.303C191.277 116.938 191.223 116.628 191.107 116.374C190.992 116.12 190.832 115.926 190.628 115.792C190.425 115.659 190.196 115.589 189.94 115.583C189.685 115.577 189.452 115.636 189.242 115.761C189.033 115.885 188.865 116.071 188.737 116.32C188.61 116.568 188.543 116.875 188.534 117.24C188.526 117.605 188.579 117.915 188.694 118.169C188.811 118.423 188.97 118.617 189.173 118.75C189.378 118.884 189.607 118.954 189.863 118.96C190.118 118.966 190.35 118.907 190.559 118.782C190.769 118.658 190.938 118.472 191.064 118.223C191.192 117.975 191.26 117.668 191.269 117.303Z" fill="white"/>
<path d="M130.238 66.7207L129.403 66.9701L128.855 70.5232L130.685 74.895L132.861 75.3223L130.238 66.7207Z" fill="#F68661"/>
<path d="M151.447 144.366C151.447 144.366 149.798 184.546 142.488 210.001C101.668 210.001 101.668 210.001 101.668 210.001L103.458 145.118L109.151 138.827L145.753 141.267L151.447 144.366Z" fill="#336A89"/>
<path d="M103.309 150.501C126.916 151.358 143.807 147.214 151.426 144.82C151.44 144.522 151.447 144.366 151.447 144.366L145.753 141.267L109.151 138.827L103.457 145.118L103.309 150.501Z" fill="#1E4759"/>
<path d="M129.648 149.39C131.409 149.17 133.092 148.928 134.691 148.671V140.529L129.648 140.193V149.39Z" fill="white"/>
<path d="M142.488 142.242C142.488 142.242 131.6 144.52 120.376 144.357C109.151 144.194 111.148 77.3352 111.148 77.3352L135.667 72.8174L142.488 142.242Z" fill="#F4B251"/>
<path d="M130.01 40.6258C130.01 40.6258 132.403 39.9753 133.14 37.9148C133.877 35.8543 131.84 34.3361 130.283 36.2878C131.22 32.0039 128.78 29.6723 127.154 33.4139C127.317 27.2865 125.364 25.7683 122.436 26.0395C119.508 26.3106 119.074 32.0586 119.074 32.0586C119.074 32.0586 118.478 28.6964 116.959 28.317C115.441 27.9376 112.947 30.3775 114.682 33.902C110.236 37.3724 108.392 41.869 108.392 41.869C108.392 41.869 107.47 40.1918 106.602 40.1377C105.735 40.0835 106.169 41.927 107.47 42.7946C104.217 42.6863 104.921 44.6381 106.873 44.6927C107.145 49.139 110.507 57.4356 114.302 59.9297C118.098 62.4237 121.962 62.5866 121.962 62.5866L115.712 43.9875L130.01 40.6258Z" fill="#600E00"/>
<path d="M128.78 62.9658C128.78 62.9658 129.686 69.5813 130.643 72.7806C131.6 75.9798 131.572 76.8474 131.572 76.8474C131.572 76.8474 127.099 80.155 119.887 78.7451C116.742 69.4184 116.742 69.4184 116.742 69.4184L115.396 54.2588L128.78 62.9658Z" fill="#F68661"/>
<path opacity="0.52" d="M129.839 69.3548C129.234 66.2827 128.78 62.9664 128.78 62.9664L125.484 60.8218L119.074 60.2549C119.074 60.2549 122.209 68.0256 129.839 69.3548Z" fill="#380403"/>
<path d="M123.512 36.1392C124.851 35.8077 126.285 35.9764 127.455 36.7062C129.288 37.8483 131.662 40.3999 132.245 46.0406C132.9 52.2651 135.112 57.9164 136.34 60.4549C137.568 62.9939 137.486 65.0413 128.477 64.8775C119.468 64.7136 116.847 58.4891 115.128 53.4933C113.408 48.4974 112.097 46.1222 112.097 46.1222C112.097 46.1222 114.645 38.336 123.512 36.1392Z" fill="#F68661"/>
<path d="M124.498 46.1836C124.498 46.1836 120.619 46.3465 121.026 49.9252C125.744 48.7864 125.744 48.7864 125.744 48.7864C125.744 48.7864 125.694 47.7288 124.498 46.1836Z" fill="white"/>
<path d="M124.361 43.6219C124.361 43.6219 120.254 43.5407 118.627 46.4282C117.082 46.7129 118.586 43.8254 119.888 42.8901C121.189 41.9544 123.792 41.5479 124.361 43.6219Z" fill="#600E00"/>
<path d="M131.572 42.5834C131.376 41.9309 131.152 41.3403 130.906 40.8066C129.855 41.0188 128.96 41.6641 128.995 42.9329C128.995 42.9329 130.142 42.5626 131.572 42.5834Z" fill="#600E00"/>
<path d="M129.282 45.3296C129.282 45.3296 129.241 47.1189 129.486 47.7695C132.007 47.0373 132.007 47.0373 132.007 47.0373C132.007 47.0373 132.047 44.4755 129.282 45.3296Z" fill="white"/>
<path d="M124.499 46.1836C124.499 46.1836 123.309 46.2363 122.316 46.8893C122.092 47.2223 121.961 47.623 121.961 48.0546C121.961 48.64 122.203 49.1678 122.59 49.5482C125.743 48.7869 125.744 48.7869 125.744 48.7869C125.744 48.7869 125.694 47.7288 124.499 46.1836Z" fill="#600E00"/>
<path d="M129.811 45.2038C129.73 45.414 129.681 45.6407 129.681 45.8795C129.681 46.5441 130.025 47.1261 130.544 47.4634C132.002 47.0405 132.007 47.0386 132.007 47.0386C132.007 47.0386 132.039 44.82 129.811 45.2038Z" fill="#600E00"/>
<path d="M136.34 60.4553C135.605 58.9352 134.518 56.2947 133.623 53.0877C132.829 52.8823 131.671 52.7735 130.283 53.2192C125.224 55.0897 124.645 58.7907 124.645 58.7907C124.645 58.7907 122.449 58.2619 119.603 55.3338C117.18 52.8417 113.98 45.0482 113.163 42.9316C112.199 44.4706 111.763 45.9395 111.763 45.9395C111.763 45.9395 113.408 48.4978 115.128 53.4937C116.848 58.4895 119.469 64.7141 128.478 64.8779C137.487 65.0418 137.569 62.9943 136.34 60.4553Z" fill="#600E00"/>
<path d="M129.282 45.3291C129.282 45.3291 129.267 50.1277 131.572 52.8934C132.291 53.6257 131.463 54.3981 129.681 53.9916C127.899 53.5846 128.59 47.0778 129.282 45.3291Z" fill="#F68661"/>
<path d="M129.201 53.6767C130.746 54.7033 132.291 53.6255 131.572 52.8932C129.267 50.128 129.279 45.1133 129.279 45.1133" stroke="#933D2A" stroke-width="0.246264" stroke-miterlimit="10"/>
<path opacity="0.32" d="M126.264 51.895C126.381 52.4978 125.624 53.1517 124.573 53.3557C123.522 53.5602 122.575 53.2368 122.458 52.6341C122.341 52.0313 123.098 51.3774 124.148 51.1734C125.2 50.9694 126.147 51.2928 126.264 51.895Z" fill="#AF0808"/>
<path opacity="0.32" d="M133.14 51.2121C132.976 50.5175 132.826 49.8041 132.691 49.0752C131.827 49.3415 131.245 49.9138 131.349 50.4469C131.454 50.9868 132.226 51.2986 133.14 51.2121Z" fill="#AF0808"/>
<path d="M132.332 55.5102C132.332 55.5102 130.76 55.8625 127.804 55.8084C127.234 55.8355 127.153 56.9201 129.187 56.9472C131.22 56.9742 132.196 56.4319 132.413 56.1337C132.63 55.8355 132.626 55.4555 132.332 55.5102Z" fill="white"/>
<path d="M115.205 54.0844C114.675 55.6518 112.705 56.4015 110.804 55.7587C108.903 55.1163 107.791 53.3245 108.322 51.757C108.851 50.1896 110.822 49.4399 112.723 50.0827C114.623 50.7256 115.735 52.5169 115.205 54.0844Z" fill="#F68661"/>
<path d="M114.074 55.4764C114.289 54.0258 113.218 52.4941 111.492 51.9107C110.306 51.51 109.095 51.6507 108.221 52.1935C108.007 53.644 109.077 55.1757 110.804 55.7591C111.989 56.1598 113.201 56.0187 114.074 55.4764Z" fill="#D66749"/>
<path d="M121.026 49.9257C121.026 49.9257 120.325 46.7535 124.498 46.1842C125.527 46.0488 125.527 46.0488 125.527 46.0488" stroke="#541610" stroke-width="0.369421" stroke-miterlimit="10"/>
<path d="M169.883 77.6607C169.883 77.6607 172.594 75.3832 170.479 67.6564C168.364 59.9297 165.219 57.4893 165.219 57.4893C165.219 57.4893 160.014 73.9191 169.883 77.6607Z" fill="#600E00"/>
<path d="M82.2557 110.738C82.2557 110.738 76.6358 127.44 76.572 136.549C84.3167 139.369 87.7866 140.453 87.7866 140.453C87.7866 140.453 94.1851 126.029 97.7638 115.51C97.6555 104.34 85.8344 107.919 82.2557 110.738Z" fill="#D66749"/>
<path d="M97.4385 81.4033C97.4385 81.4033 92.5581 84.3856 88.1118 95.5561C83.6655 106.726 82.2556 110.739 82.2556 110.739C82.2556 110.739 92.5581 109.871 97.7637 115.511C101.342 104.991 101.342 104.991 101.342 104.991C101.342 104.991 102.536 85.2532 97.4385 81.4033Z" fill="#DB2D1B"/>
<path d="M99.8789 109.292C94.1169 105.147 87.6633 104.529 84.6003 104.5C82.8791 108.964 82.2551 110.738 82.2551 110.738C82.2551 110.738 92.5576 109.87 97.7633 115.51C98.6874 112.796 99.3709 110.786 99.8789 109.292Z" fill="#B71D15"/>
<path d="M165.219 57.4897C165.219 57.4897 173.57 54.7423 179.643 52.2661C185.716 49.79 198.838 46.7889 200.573 40.8065C201.766 34.0648 202.309 31.2455 203.719 31.1367C205.237 32.1126 204.803 38.6199 204.803 38.6199L213.154 36.7764V49.0751C213.154 49.0751 206.322 52.0675 198.405 56.7308C190.488 61.3941 176.173 70.3955 171.726 72.1307C167.28 73.8659 160.665 75.8181 160.665 75.8181C160.665 75.8181 160.339 60.526 165.219 57.4897Z" fill="#F68661"/>
<path d="M144.777 62.5866L165.219 57.4893C165.219 57.4893 161.424 70.7199 169.883 77.6607C149.572 85.4546 149.572 85.4546 149.572 85.4546L144.777 62.5866Z" fill="#DB2D1B"/>
<path d="M129.403 66.9708L144.777 62.5869C144.777 62.5869 157.465 114.914 155.838 148.587C142.337 151.19 136.9 148.587 136.9 148.587C136.9 148.587 136.465 103.474 131.573 76.848C130.896 73.1683 130.247 69.7791 129.403 66.9708Z" fill="#F43F24"/>
<path d="M116.743 69.4189L97.4387 81.4025C97.4387 81.4025 100.53 143.707 99.8786 151.678C108.194 153.792 119.4 153.467 125.744 149.238C126.394 107.755 122.219 80.2096 116.743 69.4189Z" fill="#F43F24"/>
<path d="M165.219 57.4893L159.935 58.8069C159.133 63.1599 158.007 74.0598 165.31 79.4152C166.707 78.8792 168.226 78.2963 169.882 77.6607C161.423 70.7199 165.219 57.4893 165.219 57.4893Z" fill="#B71D15"/>
<path d="M213.994 50.8153L214.238 24.5842L212.937 23.7615V23.6702C212.937 22.7537 212.303 21.9586 211.409 21.7556L208.842 21.1722L207.007 20.0117L205.119 20.4632C205.095 20.4685 205.071 20.4743 205.046 20.4806L205.01 20.4893V20.4936C204.432 20.6662 203.989 21.1954 203.989 21.8533V48.4957C203.989 49.4576 204.686 50.2778 205.636 50.4335L211.283 51.3576C211.456 51.3861 211.623 51.374 211.785 51.3426L211.798 51.347L211.894 51.3238C211.9 51.3223 211.906 51.3214 211.912 51.3194L213.994 50.8153Z" fill="#336A89"/>
<path d="M213.317 50.8704L207.67 49.9463C206.721 49.7911 206.024 48.9709 206.024 48.0085V21.3661C206.024 20.4525 206.872 19.7749 207.763 19.9774L213.443 21.2684C214.336 21.4714 214.971 22.266 214.971 23.1829V49.4653C214.971 50.3431 214.184 51.012 213.317 50.8704Z" fill="#6BA6BF"/>
<path d="M208.545 22.2253C208.545 22.6371 208.369 22.9711 208.152 22.9711C207.935 22.9711 207.759 22.6371 207.759 22.2253C207.759 21.8135 207.935 21.4795 208.152 21.4795C208.368 21.48 208.545 21.8135 208.545 22.2253Z" fill="white"/>
<path d="M212.286 34.3115C211.048 34.3115 210.036 35.3241 210.036 36.562C210.036 37.7998 211.048 38.8124 212.286 38.8124C211.048 38.8124 210.036 39.825 210.036 41.0629C210.036 41.7787 210.381 42.4124 210.906 42.8252C210.381 43.2379 210.036 43.8716 210.036 44.5874C210.036 45.2999 210.377 45.9302 210.898 46.3429C210.584 46.7064 210.386 47.1733 210.386 47.6891C210.386 48.8283 211.318 49.7602 212.457 49.7602H214.937C214.957 49.665 214.97 49.5673 214.97 49.4654V34.3115H212.286Z" fill="#336A89"/>
<path d="M217.076 48.9704H213.109C211.969 48.9704 211.037 48.0385 211.037 46.8993C211.037 45.76 211.969 44.8281 213.109 44.8281H217.076C218.216 44.8281 219.148 45.76 219.148 46.8993C219.148 48.038 218.215 48.9704 217.076 48.9704Z" fill="#F68661"/>
<path d="M217.247 46.0468H212.936C211.699 46.0468 210.686 45.0342 210.686 43.7964C210.686 42.5585 211.699 41.5459 212.936 41.5459H217.247C218.485 41.5459 219.498 42.5585 219.498 43.7964C219.498 45.0342 218.485 46.0468 217.247 46.0468Z" fill="#F68661"/>
<path d="M217.247 42.5234H212.936C211.699 42.5234 210.686 41.5108 210.686 40.2729C210.686 39.0351 211.699 38.0225 212.936 38.0225H217.247C218.485 38.0225 219.498 39.0351 219.498 40.2729C219.498 41.5108 218.485 42.5234 217.247 42.5234Z" fill="#F68661"/>
<path d="M217.247 38.0224H212.936C211.699 38.0224 210.686 37.0098 210.686 35.7719C210.686 34.5341 211.699 33.5215 212.936 33.5215H217.247C218.485 33.5215 219.498 34.5341 219.498 35.7719C219.498 37.0098 218.485 38.0224 217.247 38.0224Z" fill="#F68661"/>
<path d="M177.203 65.4062C173.16 65.4062 169.883 68.6838 169.883 72.7265C169.883 72.7574 169.887 72.7869 169.887 72.8179C170.524 72.5883 171.144 72.3572 171.727 72.1301C173.623 71.3901 177.318 69.3257 181.544 66.8418C180.328 65.9437 178.83 65.4062 177.203 65.4062Z" fill="#D66749"/>
<path d="M100.64 79.4158C100.64 79.4158 101.647 74.5238 108.002 74.8453C111.971 89.0483 110.126 114.092 99.2818 122.989C98.1141 120.071 99.0658 118.546 99.0658 118.546C99.0658 118.546 106.551 103.511 100.64 79.4158Z" fill="#336A89"/>
<path d="M95.9868 93.6176C97.1144 91.648 98.824 90.0795 100.871 89.0983C103.671 87.7561 107.727 85.9145 109.802 85.4553C113.164 84.7105 113.597 86.0122 113.706 87.6391C113.597 88.832 114.356 89.049 114.899 90.2419C115.441 91.4348 114.79 93.17 114.248 94.0376C114.031 94.9052 115.09 96.0981 115.103 97.0745C115.116 98.0503 113.706 99.8943 113.272 100.653C112.838 101.412 103.077 105.533 103.077 105.533C103.077 105.533 99.8241 113.017 97.4383 122.669C95.0525 132.32 91.9074 145.443 83.8824 144.684C75.8569 143.925 74.7728 136.225 79.002 127.332C83.2318 118.439 93.6426 98.1591 94.9442 95.5563C95.2806 94.882 95.6398 94.2237 95.9868 93.6176Z" fill="#F68661"/>
<path d="M90.7628 141.019C89.5196 137.894 86.4741 135.682 82.906 135.682C80.4579 135.682 78.2596 136.728 76.7148 138.39C77.2857 141.886 79.5907 144.277 83.8819 144.683C86.7297 144.952 88.9604 143.469 90.7628 141.019Z" fill="#D66749"/>
<path d="M132.239 76.1162C132.239 76.1162 129.039 80.346 119.258 78.5561" stroke="#FFF6E7" stroke-width="0.492529" stroke-miterlimit="10"/>
<path d="M135.314 65.2843C135.314 65.2843 148.178 82.3261 151.764 98.0502C152.097 94.0365 150.626 87.7173 149.572 85.4543C143.53 66.7073 141.231 63.5969 141.231 63.5969C141.231 63.5969 137.619 63.1025 135.314 65.2843Z" fill="#336A89"/>
<path d="M155.959 144.759C152.283 145.305 144.718 146.116 136.844 145.095C136.887 147.32 136.9 148.586 136.9 148.586C136.9 148.586 142.337 151.189 155.838 148.586C155.899 147.335 155.937 146.057 155.959 144.759Z" fill="#B71D15"/>
<path d="M125.792 145.118C122.962 146.213 113.911 149.012 99.9629 146.759C99.9793 149.027 99.9551 150.736 99.8783 151.678C108.194 153.793 119.399 153.467 125.744 149.238C125.765 147.848 125.781 146.477 125.792 145.118Z" fill="#B71D15"/>
<path d="M116.743 69.4189L113.139 71.6564L112.405 82.1077L120.346 79.7973C119.247 75.4376 118.031 71.9584 116.743 69.4189Z" fill="#B71D15"/>
<path d="M131.572 76.8478C131.634 77.1876 131.696 77.5322 131.757 77.8783H139.517L131.783 66.292L129.403 66.9706C130.247 69.7788 130.896 73.1681 131.572 76.8478Z" fill="#B71D15"/>
<path d="M150.579 68.2251C153.399 66.7069 152.531 63.5487 152.531 63.5487C152.531 63.5487 154.809 64.8634 155.242 67.2492C157.035 63.3965 156.225 61.133 155.328 59.9551L148.065 61.7662L146.458 64.8866L149.82 63.5618C149.82 63.5618 150.47 66.3812 150.579 68.2251Z" fill="white"/>
<path d="M139.083 104.122C139.083 104.122 139.083 104.122 141.577 101.233C138.348 100.433 136.078 102.241 134.847 103.674C135.165 107.575 135.434 111.47 135.662 115.247C137.941 113.247 137.348 110.412 137.348 110.412C137.348 110.412 138.541 110.954 141.252 113.123C142.59 110.212 140.059 107.592 140.059 107.592C140.059 107.592 140.059 107.592 144.28 107.867C143.295 104.346 139.083 104.122 139.083 104.122Z" fill="white"/>
<path d="M153.969 113.524C152.329 113.063 149.494 112.774 147.868 115.51C150.036 115.727 151.555 116.703 151.555 116.703C151.555 116.703 150.254 116.811 147.868 119.306C150.796 119.089 152.531 119.631 152.531 119.631C152.531 119.631 150.796 121.474 150.796 123.318C151.64 122.334 153.565 121.58 154.818 121.169C154.566 118.618 154.28 116.063 153.969 113.524Z" fill="white"/>
<path d="M142.987 135.682C142.987 135.682 144.831 133.079 146.891 132.428C141.079 131.325 138.014 134.763 136.642 137.088C136.683 138.408 136.717 139.637 136.746 140.765C138.508 141.089 142.13 141.922 144.28 143.599C143.729 139.153 142.174 139.044 142.174 139.044C142.174 139.044 145.265 137.092 148.518 137.959C146.783 135.14 142.987 135.682 142.987 135.682Z" fill="white"/>
<path d="M124.494 107.062C122.595 106.36 119.655 105.997 116.85 108.591C118.477 108.243 121.948 109.544 121.948 109.544C121.948 109.544 117.61 110.087 116.85 113.557C119.67 112.256 122.381 113.225 122.381 113.225C122.381 113.225 120.212 115.611 120.971 118.271C122.135 117.007 123.945 116.239 125.123 115.844C124.946 112.789 124.735 109.861 124.494 107.062Z" fill="white"/>
<path d="M103.728 124.16C103.728 124.16 104.162 123.318 105.897 121.691C102.421 120.952 100.34 123.54 99.3667 125.262C99.4271 126.883 99.4846 128.479 99.5388 130.037C103.01 130.594 105.572 134.271 105.572 134.271C105.572 134.271 106.657 130.259 103.728 128.523C104.379 127.222 108.066 126.788 109.922 127.439C108.741 123.535 103.728 124.16 103.728 124.16Z" fill="white"/>
<path d="M88.7626 96.5308C89.9555 95.1208 89.8473 93.4944 89.8473 93.4944C89.8473 93.4944 91.2572 94.2532 91.8599 96.5308C93.5473 92.518 91.5825 91.6504 91.5825 91.6504C91.5825 91.6504 93.1007 91.9757 94.077 93.1686C94.441 89.8867 93.0499 88.4193 91.959 87.7803C90.7946 89.659 89.5481 92.0405 88.3271 95.028C88.4775 95.4814 88.6254 95.9812 88.7626 96.5308Z" fill="white"/>
<path d="M129.323 45.227C129.323 45.227 131.844 44.4338 132.007 47.0367" stroke="#541610" stroke-width="0.369421" stroke-miterlimit="10"/>
<path opacity="0.23" d="M213.515 21.2916C213.49 21.2849 213.467 21.2742 213.442 21.2684L207.763 19.9774C206.872 19.7749 206.023 20.4521 206.023 21.3661V40.1092L213.515 21.2916Z" fill="white"/>
<path d="M205.502 20.3721C205.502 20.3721 204.912 20.4538 204.912 22.8395V48.2935C204.912 49.2341 205.593 50.0364 206.522 50.1891L212.511 51.1742" stroke="#A0E0FE" stroke-width="0.197011" stroke-miterlimit="10"/>
<path d="M217.537 38.0029H212.937" stroke="#933D2A" stroke-width="0.197011" stroke-miterlimit="10"/>
<path d="M218.642 42.0352C218.642 42.0352 217.537 42.6045 215.237 42.6045C212.936 42.6045 211.542 42.0352 211.542 42.0352" stroke="#933D2A" stroke-width="0.197011" stroke-miterlimit="10"/>
<path d="M218.642 45.5498C218.642 45.5498 218.427 46.0486 214.97 46.0486C213.344 46.0486 212.682 46.095 211.529 45.5498" stroke="#933D2A" stroke-width="0.197011" stroke-miterlimit="10"/>
<path opacity="0.23" d="M136.869 61.9713C136.797 61.4982 136.599 60.9877 136.341 60.4551C135.112 57.9161 132.901 52.2653 132.246 46.0408C131.663 40.3997 129.289 37.8486 127.457 36.7064C126.286 35.9766 124.852 35.8074 123.513 36.1395C119.528 37.1264 116.823 39.242 115.049 41.2731C115.632 45.6696 119.338 66.3804 136.869 61.9713Z" fill="white"/>
</g>
</svg>
