<svg width="375" height="472" viewBox="0 0 375 472" fill="none" xmlns="http://www.w3.org/2000/svg">
<g clip-path="url(#clip0_105_5211)">
<path d="M60.6093 125.194L-298.164 471.875H110.02H518.205L159.431 125.194C131.871 98.5655 88.1691 98.5655 60.6093 125.194Z" fill="#319B89"/>
<path d="M298 259C298 259 223.426 365.998 109.11 365.998C-5.20593 365.998 -78.9578 260.057 -78.9578 260.057L-298.164 471.875H518.205L298 259Z" fill="#10676E"/>
<path d="M441.074 397.345C441.074 397.345 296.978 402.343 271.675 444.303C271.675 444.303 226.84 399.682 191.976 453.607C191.976 453.607 161.846 425.657 110.02 425.657C58.1947 425.657 28.0644 453.607 28.0644 453.607C-6.79904 399.682 -51.6347 444.303 -51.6347 444.303C-76.9376 402.341 -223.483 399.711 -223.483 399.711L-298.164 471.876H518.205L441.074 397.345Z" fill="#05545E"/>
<path d="M140.258 171.81C140.258 171.81 140.907 180.976 147.285 180.343C155.504 179.527 161.715 165.16 161.715 165.16C161.715 165.16 162.323 171.388 166.358 171.685C174.025 172.248 181.883 154.688 184.136 149.066L159.87 124.692C131.731 96.5532 88.6289 97.494 60.1129 125.194L35.9048 149.066C38.1559 154.688 46.0136 172.248 53.6828 171.685C57.7175 171.388 58.3255 165.16 58.3255 165.16C58.3255 165.16 64.5362 179.527 72.7557 180.343C79.1338 180.976 79.7822 171.81 79.7822 171.81C88.4404 195.525 110.02 195.4 110.02 195.4C110.02 195.4 131.6 195.527 140.258 171.81Z" fill="white"/>
<g opacity="0.1">
<path d="M-168.808 20.261L85.0824 113.501L10.6044 76.87C10.6044 76.87 10.4744 39.435 -23.3086 44.522C-23.3086 44.522 -16.6796 2.527 -46.0686 -13.234C-70.6326 -26.408 -93.5996 -9.217 -93.5996 -9.217C-93.5996 -9.217 -87.0916 -43.652 -112.788 -53H-168.808V20.261Z" fill="#E4F4EB"/>
<path d="M320.142 259.217H407.403L376.881 255.304C376.881 255.304 373.664 246.273 365.272 249.435C365.272 249.435 356.402 234.174 341.663 235.348C327.476 236.478 332.533 251 332.533 251C332.533 251 321.707 247.217 320.142 259.217Z" fill="#E4F4EB"/>
<path d="M361.489 253.005H361.485C361.356 253.003 361.237 252.936 361.17 252.826C361.143 252.783 358.459 248.492 354.252 248.038C351.598 247.745 348.879 249.033 346.172 251.847C346.029 251.998 345.791 252 345.642 251.858C345.493 251.715 345.488 251.477 345.632 251.328C348.51 248.336 351.439 246.982 354.337 247.294C358.09 247.701 360.635 250.772 361.493 251.967C363.072 249.833 365.058 249.114 365.147 249.082C365.341 249.015 365.555 249.115 365.625 249.311C365.694 249.505 365.592 249.72 365.397 249.789C365.376 249.797 363.274 250.566 361.803 252.835C361.735 252.941 361.616 253.005 361.489 253.005Z" fill="#BFE3CF"/>
<path d="M276.242 107.217H188.982L219.504 103.304C219.504 103.304 222.721 94.2726 231.113 97.4346C231.113 97.4346 239.983 82.1736 254.722 83.3476C268.909 84.4776 263.852 98.9996 263.852 98.9996C263.852 98.9996 274.677 95.2166 276.242 107.217Z" fill="#E4F4EB"/>
<path d="M234.895 101.005C234.768 101.005 234.65 100.941 234.581 100.834C233.102 98.5547 231.009 97.7956 230.987 97.7876C230.792 97.7196 230.689 97.5046 230.759 97.3096C230.828 97.1166 231.037 97.0106 231.237 97.0806C231.326 97.1116 233.312 97.8316 234.891 99.9656C235.748 98.7716 238.293 95.6996 242.046 95.2926C244.948 94.9816 247.874 96.3346 250.752 99.3266C250.896 99.4756 250.891 99.7136 250.741 99.8566C250.593 99.9986 250.355 99.9976 250.211 99.8456C247.504 97.0326 244.783 95.7436 242.132 96.0366C237.925 96.4906 235.241 100.782 235.214 100.825C235.147 100.934 235.028 101.002 234.9 101.004C234.898 101.005 234.897 101.005 234.895 101.005Z" fill="#BFE3CF"/>
<path d="M352.672 298.739L533.846 294.63L492.392 288.904C492.392 288.904 488.911 264.043 466.607 271.217C466.607 271.217 464.52 236.521 433.552 237.5C404.925 238.404 400.411 269.685 412.64 280.152C412.64 280.152 407.162 278.521 406.575 285.63C406.575 285.63 401.097 276.434 391.999 279.858C381.611 283.768 385.151 295.119 385.151 295.119L352.672 298.739Z" fill="#E4F4EB"/>
<path d="M322.911 209.507L321.901 212.689L318.563 212.712C315.249 212.734 313.9 216.985 316.594 218.914L319.308 220.858L318.298 224.04C317.295 227.199 320.92 229.795 323.588 227.829L326.276 225.848L328.99 227.792C331.684 229.722 335.274 227.076 334.228 223.931L333.175 220.763L335.863 218.782C338.531 216.816 337.124 212.585 333.81 212.607L330.472 212.63L329.419 209.462C328.372 206.318 323.913 206.349 322.911 209.507Z" fill="white"/>
</g>
<path d="M202.698 233.585V305.272L195.786 308.174L88 282.486V219.334L95.9369 216.916L202.698 233.585Z" fill="#5A00E8"/>
<path d="M202.698 233.585L195.786 236.572V308.173L202.698 305.272V233.585Z" fill="#3F0484"/>
<path d="M202.698 233.585L195.786 236.572L88 219.334L95.9369 216.916L202.698 233.585Z" fill="#4B08A3"/>
<path d="M190.188 301.469C190.155 301.469 190.124 301.465 190.091 301.458L91.5924 279.071C91.3952 279.026 91.2539 278.85 91.2539 278.646V223.853C91.2539 223.726 91.3097 223.604 91.4092 223.52C91.5086 223.438 91.6395 223.4 91.7634 223.424L190.262 240.327C190.471 240.364 190.625 240.544 190.625 240.757V301.034C190.625 301.167 190.565 301.293 190.461 301.375C190.382 301.436 190.286 301.469 190.188 301.469ZM92.1263 278.299L189.752 300.487V241.125L92.1263 224.372V278.299Z" fill="white"/>
<path d="M205.514 237.398L200.224 236.962C199.917 236.936 199.654 237.18 199.654 237.487V304.39C199.654 304.651 199.846 304.875 200.106 304.911L205.514 305.698V237.398Z" fill="#FF9100"/>
<path d="M343.427 114.536H352.728V174.645L233.45 207.301L225.476 205.474V125.785L343.427 114.536Z" fill="#5A00E8"/>
<path d="M233.591 126.143L233.45 207.302L225.476 205.475V125.785L233.591 126.143Z" fill="#3F0484"/>
<path d="M225.476 125.785L343.425 114.536H352.728L233.591 126.142L225.476 125.785Z" fill="#4B08A3"/>
<path d="M239.87 199.368C239.726 199.368 239.584 199.321 239.467 199.23C239.307 199.106 239.216 198.914 239.216 198.713V130.989C239.216 130.656 239.467 130.375 239.797 130.338L347.97 118.233C348.166 118.217 348.34 118.27 348.48 118.397C348.617 118.521 348.698 118.699 348.698 118.884V171.63C348.698 171.93 348.494 172.191 348.202 172.265L240.029 199.347C239.975 199.361 239.923 199.368 239.87 199.368ZM240.525 131.572V197.874L347.389 171.117V119.611L240.525 131.572Z" fill="white"/>
<path d="M223.892 206.064L228.365 204.399C229.123 204.118 229.623 203.396 229.623 202.588V131.132C229.623 130.608 229.172 130.202 228.652 130.256L223.892 130.751V206.064Z" fill="#FF9100"/>
<path d="M224.127 472.001V124.23C224.127 118.76 221.534 114.326 218.334 114.326H210.728C207.528 114.326 204.935 118.76 204.935 124.23V472.001H224.127Z" fill="#E33432"/>
<path d="M204.935 472.001V124.23C204.935 118.76 207.642 114.326 210.982 114.326H218.893C215.535 114.326 212.812 118.784 212.812 124.283V472.001H204.935Z" fill="#720D44"/>
<path d="M212.811 132.626L205.46 132.015C205.099 131.984 204.832 131.668 204.862 131.309C204.893 130.949 205.185 130.674 205.569 130.71L212.794 131.321L223.819 130.1C224.18 130.073 224.503 130.321 224.541 130.679C224.581 131.038 224.321 131.363 223.962 131.401L212.811 132.626Z" fill="#5B0638"/>
<path d="M104.943 261.252C104.115 261.089 103.274 260.816 102.421 260.432C101.568 260.063 100.847 259.645 100.258 259.18L100.993 256.044C101.752 256.61 102.46 257.025 103.116 257.289C103.786 257.542 104.403 257.724 104.969 257.836C105.495 257.939 105.89 257.93 106.154 257.808C106.431 257.688 106.571 257.481 106.573 257.186C106.575 256.918 106.426 256.681 106.125 256.474C105.823 256.253 105.43 256.028 104.945 255.798C104.472 255.57 103.968 255.316 103.43 255.036C102.892 254.741 102.381 254.399 101.897 254.008C101.426 253.607 101.042 253.128 100.743 252.572C100.444 252.004 100.298 251.337 100.304 250.573C100.311 249.609 100.548 248.823 101.013 248.217C101.479 247.598 102.14 247.185 102.997 246.979C103.855 246.759 104.862 246.763 106.019 246.992C106.794 247.145 107.55 247.401 108.284 247.761C109.032 248.11 109.628 248.503 110.072 248.939L109.379 251.762C108.711 251.348 108.108 251.028 107.57 250.8C107.045 250.563 106.546 250.397 106.073 250.304C105.521 250.194 105.099 250.192 104.809 250.296C104.518 250.399 104.372 250.585 104.37 250.853C104.368 251.108 104.518 251.345 104.819 251.566C105.12 251.786 105.507 252.017 105.979 252.258C106.451 252.499 106.956 252.766 107.493 253.06C108.031 253.354 108.535 253.702 109.006 254.104C109.477 254.505 109.862 254.984 110.16 255.539C110.459 256.095 110.605 256.748 110.6 257.498C110.588 259.053 110.079 260.153 109.074 260.8C108.081 261.45 106.704 261.6 104.943 261.252ZM111.916 262.307L112.021 248.479L121.545 250.36L121.522 253.415L116.789 252.48L116.771 254.932L121.089 255.785L121.07 258.318L116.751 257.465L116.731 260.098L121.464 261.033L121.44 264.188L111.916 262.307ZM123.22 264.54L123.325 250.711L127.426 251.521L130.767 258.904L134.131 252.845L138.233 253.655L138.127 267.484L134.026 266.674L134.081 259.438L131.54 263.767L129.864 263.436L127.376 258.114L127.321 265.35L123.22 264.54ZM140.301 267.913L140.406 254.084L149.93 255.965L149.907 259.02L145.174 258.086L145.156 260.538L149.474 261.391L149.455 263.923L145.137 263.07L145.117 265.703L149.849 266.638L149.825 269.794L140.301 267.913ZM161.876 272.496C160.93 272.309 160.149 272.014 159.533 271.61C158.917 271.193 158.427 270.694 158.063 270.112C157.699 269.53 157.427 268.879 157.248 268.16C157.07 267.44 156.95 266.678 156.891 265.875L155.964 265.692L155.923 270.998L151.605 270.145L151.71 256.317L157.291 257.419C159.447 257.844 160.995 258.539 161.935 259.503C162.889 260.457 163.361 261.59 163.351 262.903C163.345 263.694 163.13 264.362 162.704 264.909C162.279 265.442 161.598 265.825 160.661 266.056C160.712 266.361 160.756 266.611 160.794 266.807C160.832 267.002 160.889 267.221 160.966 267.465C161.134 267.981 161.342 268.357 161.59 268.594C161.851 268.834 162.206 268.998 162.653 269.086C162.942 269.143 163.231 269.16 163.521 269.137L163.733 272.48C163.469 272.535 163.186 272.566 162.883 272.574C162.593 272.597 162.257 272.571 161.876 272.496ZM155.985 262.938L156.734 263.086C157.707 263.278 158.391 263.306 158.787 263.169C159.196 263.022 159.403 262.68 159.407 262.144C159.411 261.689 159.249 261.328 158.922 261.062C158.595 260.783 158.076 260.573 157.366 260.433L156.006 260.164L155.985 262.938ZM171.278 274.352C169.963 274.093 168.808 273.623 167.813 272.943C166.817 272.264 166.047 271.42 165.502 270.414C164.957 269.393 164.689 268.253 164.698 266.994L164.76 258.894L169.138 259.758L169.078 267.657C169.071 268.555 169.276 269.26 169.693 269.772C170.124 270.273 170.688 270.592 171.385 270.73C172.121 270.875 172.681 270.771 173.066 270.418C173.463 270.067 173.665 269.516 173.671 268.766L173.732 260.665L178.169 261.542L178.108 269.642C178.098 270.834 177.801 271.829 177.216 272.626C176.631 273.423 175.823 273.975 174.794 274.282C173.778 274.591 172.606 274.614 171.278 274.352Z" fill="white"/>
<path d="M260.924 166.748L255.745 167.69L255.795 153.761L261.392 152.744C263.583 152.345 265.189 152.364 266.209 152.799C267.229 153.22 267.738 153.971 267.734 155.051C267.729 156.455 267.002 157.551 265.552 158.341C267.41 158.367 268.336 159.312 268.329 161.174C268.324 162.605 267.676 163.788 266.385 164.724C265.108 165.644 263.287 166.319 260.924 166.748ZM260.217 158.46L261.791 158.174C262.322 158.078 262.754 157.878 263.087 157.575C263.419 157.271 263.587 156.917 263.588 156.512C263.591 155.581 262.969 155.229 261.721 155.456L260.227 155.727L260.217 158.46ZM261.89 163.72C262.554 163.599 263.066 163.372 263.425 163.036C263.785 162.701 263.965 162.291 263.967 161.805C263.969 161.279 263.791 160.906 263.434 160.688C263.076 160.456 262.566 160.401 261.902 160.521L260.189 160.833L260.177 164.031L261.89 163.72ZM280.283 163.554C279.327 163.728 278.537 163.73 277.914 163.56C277.291 163.376 276.794 163.062 276.424 162.616C276.054 162.171 275.778 161.621 275.594 160.967C275.411 160.312 275.287 159.593 275.224 158.808L274.287 158.979L274.268 164.323L269.906 165.116L269.956 151.187L275.593 150.163C277.771 149.767 279.337 149.874 280.29 150.483C281.256 151.076 281.737 152.034 281.733 153.357C281.73 154.153 281.515 154.907 281.088 155.618C280.66 156.317 279.975 156.96 279.03 157.55C279.082 157.837 279.128 158.072 279.167 158.254C279.206 158.435 279.265 158.634 279.344 158.849C279.515 159.303 279.726 159.602 279.978 159.745C280.243 159.886 280.601 159.915 281.052 159.833C281.345 159.78 281.637 159.686 281.929 159.552L282.156 162.829C281.89 162.985 281.605 163.125 281.299 163.248C281.006 163.382 280.668 163.484 280.283 163.554ZM274.297 156.205L275.054 156.067C276.037 155.889 276.728 155.655 277.127 155.367C277.54 155.063 277.747 154.641 277.749 154.101C277.75 153.642 277.586 153.341 277.254 153.199C276.923 153.044 276.399 153.031 275.682 153.161L274.307 153.411L274.297 156.205ZM290.021 161.784C288.574 162.047 287.3 161.969 286.2 161.548C285.1 161.127 284.24 160.427 283.62 159.447C283.013 158.465 282.712 157.266 282.717 155.848C282.722 154.418 283.032 153.1 283.647 151.896C284.275 150.689 285.141 149.675 286.246 148.854C287.35 148.033 288.626 147.491 290.073 147.228C291.521 146.965 292.795 147.044 293.895 147.464C294.995 147.871 295.848 148.566 296.455 149.548C297.075 150.528 297.383 151.74 297.377 153.184C297.372 154.601 297.056 155.913 296.428 157.12C295.813 158.324 294.953 159.337 293.849 160.158C292.744 160.979 291.469 161.521 290.021 161.784ZM290.034 158.1C290.871 157.948 291.556 157.493 292.09 156.735C292.636 155.974 292.912 155.054 292.916 153.975C292.918 153.246 292.794 152.628 292.544 152.12C292.307 151.61 291.97 151.24 291.533 151.009C291.109 150.762 290.612 150.691 290.041 150.795C289.204 150.947 288.519 151.415 287.985 152.2C287.452 152.971 287.183 153.911 287.179 155.017C287.175 156.097 287.438 156.919 287.966 157.484C288.495 158.049 289.184 158.254 290.034 158.1ZM298.968 159.835L299.018 145.906L303.161 145.153L306.563 151.292L309.933 143.922L314.077 143.169L314.026 157.098L309.883 157.851L309.91 150.563L307.362 155.881L305.669 156.189L303.137 151.793L303.111 159.082L298.968 159.835ZM322.973 155.796C321.526 156.059 320.252 155.98 319.152 155.56C318.052 155.139 317.192 154.439 316.572 153.459C315.965 152.477 315.664 151.277 315.669 149.86C315.674 148.429 315.984 147.112 316.599 145.908C317.227 144.701 318.093 143.687 319.198 142.866C320.302 142.045 321.578 141.503 323.026 141.24C324.473 140.977 325.747 141.055 326.847 141.476C327.947 141.883 328.8 142.578 329.407 143.56C330.027 144.54 330.335 145.752 330.33 147.196C330.324 148.613 330.008 149.925 329.38 151.132C328.765 152.336 327.905 153.348 326.801 154.17C325.697 154.991 324.421 155.533 322.973 155.796ZM322.986 152.111C323.823 151.959 324.508 151.504 325.042 150.746C325.589 149.986 325.864 149.066 325.868 147.986C325.87 147.258 325.747 146.639 325.496 146.132C325.259 145.622 324.922 145.252 324.485 145.021C324.061 144.774 323.564 144.703 322.993 144.806C322.156 144.958 321.471 145.427 320.937 146.212C320.404 146.983 320.135 147.922 320.131 149.029C320.127 150.109 320.39 150.931 320.918 151.496C321.447 152.061 322.137 152.266 322.986 152.111Z" fill="white"/>
</g>
<defs>
<clipPath id="clip0_105_5211">
<rect width="375" height="472" fill="white"/>
</clipPath>
</defs>
</svg>
