<svg width="375" height="472" viewBox="0 0 375 472" fill="none" xmlns="http://www.w3.org/2000/svg">
<g clip-path="url(#clip0_105_5281)">
<path opacity="0.1" d="M21.0364 377.49C203.161 505.634 253.495 335.439 422.741 335.439V485.291H21.0364V377.49Z" fill="#BFE3CF"/>
<path d="M138.969 409.924H138.623C102.181 410.872 73.258 389.244 72.0207 388.32C69.9186 386.672 68.548 384.263 68.2043 381.614C67.8606 378.965 68.5713 376.287 70.1832 374.156C71.7951 372.026 74.1793 370.614 76.8222 370.225C79.4651 369.836 82.1551 370.5 84.3129 372.075C84.803 372.437 109.13 390.32 138.141 389.573C140.801 389.522 143.376 390.514 145.314 392.336C147.252 394.158 148.401 396.667 148.514 399.325C148.628 401.983 147.697 404.58 145.92 406.56C144.144 408.541 141.664 409.748 139.009 409.924H138.969Z" fill="#BFE3CF"/>
<path d="M490.7 554.7C537.258 508.143 537.258 432.658 490.7 386.101C444.143 339.543 368.658 339.543 322.101 386.101C275.543 432.658 275.543 508.143 322.101 554.7C368.658 601.258 444.143 601.258 490.7 554.7Z" fill="#107075"/>
<path d="M451.599 538.548C450.707 538.789 445.855 539.352 443.87 537.745C441.886 536.138 440.512 537.215 437.933 536.942C435.354 536.668 432.068 538.629 430.14 539.022C428.212 539.416 425.079 540.139 423.231 539.914C421.383 539.689 423.134 539.111 422.427 536.805C421.72 534.499 419.27 536.572 415.1 537.93C410.931 539.288 408.769 536.998 408.609 535.961C408.448 534.925 408.062 534.796 406.897 533.551C405.732 532.306 404.254 532.587 404.262 531.752C404.27 530.916 403.877 530.305 402.109 528.152C400.342 525.999 399.948 527.18 395.851 526.128C391.753 525.075 387.013 527.534 386.057 527.437C385.101 527.341 381.871 526.047 377.565 523.742C373.259 521.436 375.323 522.078 375.388 520.528C375.452 518.977 367.627 517.828 364.783 516.567C361.939 515.306 362.236 517.724 361.939 518.407C361.641 519.09 356.315 519.074 355.302 518.102C354.29 517.13 353.824 515.274 350.627 514.269C347.429 513.265 350.145 516.68 349.775 517.957C349.405 519.234 346.867 519.564 345.613 517.957C344.36 516.35 345.485 511.674 345.485 511.674C343.946 511.664 342.445 512.149 341.203 513.056C338.993 514.607 339.789 518.921 338.351 519.781C336.912 520.64 334.727 522.303 334.277 521.942C333.827 521.58 333.996 520.472 333.699 519.355C333.402 518.238 331.441 517.579 330.204 519.218C328.967 520.857 327.794 519.62 325.817 519.315C323.841 519.009 323.785 517.949 321.921 516.784C320.057 515.619 319.928 512.904 319.961 511.224C319.989 509.254 320.312 507.299 320.917 505.424C321.495 504.01 319.31 503.407 318.338 502.475C317.366 501.543 316 501.31 312.818 501.447C309.637 501.584 310.962 500.748 309.082 498.627C307.202 496.506 308.657 496.594 309.042 494.465C309.277 493.255 309.069 492 308.456 490.93C308.303 490.368 312.473 487.227 312.296 486.56C312.119 485.893 308.608 484.808 307.861 485.596C307.114 486.383 307.058 490.585 306.013 492.529C304.969 494.473 303.089 492.722 301.707 492.015C300.444 491.361 299.345 490.43 298.493 489.291C297.777 488.414 297.255 487.395 296.962 486.301C296.67 485.206 296.614 484.062 296.798 482.944C297.377 480.052 297.545 480.96 297.296 479.594C297.047 478.228 296.284 477.128 297.562 475.232C298.839 473.336 298.212 466.949 299.466 464.948C300.719 462.948 302.808 464.056 305.089 463.59C307.371 463.124 306.696 464.579 307.419 464.731C308.142 464.884 310.287 463.847 311.959 463.398C313.63 462.948 315.526 464.715 316.61 465.261C317.695 465.808 317.671 467.832 318.073 470.235C318.372 472.018 318.84 473.77 319.47 475.465C320.145 477.546 321.656 477.385 322.491 477.401C323.327 477.417 321.985 473.721 321.857 472.797C321.728 471.874 322.66 470.797 321.961 468.716C321.262 466.635 319.752 464.892 319.422 463.671C319.093 462.45 320.547 460.746 321.559 460.457C322.572 460.168 325.97 455.58 326.508 453.644C327.064 451.976 328.206 450.566 329.722 449.675C331.396 448.548 332.923 447.218 334.269 445.714C336.414 443.473 335.707 439.488 334.526 437.303C333.345 435.118 335.193 433.543 335.9 432.643C336.607 431.743 339.749 431.84 341.693 431.092C343.637 430.345 342.191 429.405 341.235 427.164C340.279 424.922 343.645 424.022 343.645 424.022L349.687 421.331C350.804 420.768 351.878 420.124 352.9 419.403C354.081 418.487 352.683 416.358 352.788 415.852C353.159 414.914 353.591 414.002 354.081 413.12L351.109 411.377L350.916 409.312C352.592 409.108 354.281 409.017 355.969 409.039C357.793 409.151 359.44 407.753 360.292 406.926C361.143 406.098 363.562 404.861 364.373 405.239C365.184 405.616 364.566 408.171 362.991 409.425C361.416 410.678 360.862 410.831 360.179 410.935C359.496 411.039 360.75 412.646 362.871 412.542C364.992 412.437 365.144 411.224 366.839 410.413C368.535 409.601 369.298 412.494 370.816 412.823C372.335 413.152 374.343 411.754 374.134 410.975C373.926 410.196 372.68 407.312 372.423 406.789C372.166 406.267 368.278 406.46 367.86 406.219C367.294 405.553 366.914 404.749 366.759 403.889C366.797 403.346 366.732 402.801 366.566 402.282C366.325 401.39 364.309 400.973 364.204 400.595C364.1 400.217 366.173 399.044 366.357 398.402C366.542 397.759 365.763 396.176 363.827 395.614C361.89 395.052 360.886 394.859 360.051 393.525C359.215 392.191 360.517 391.259 360.983 388.986C361.449 386.712 358.46 386.68 356.909 387.572C355.359 388.464 354.933 389.982 353.366 390.303C351.8 390.625 351.816 390.151 351.141 388.753C350.466 387.355 350.554 387.001 348.883 385.66C347.212 384.318 347.983 385.427 344.593 385.66C341.203 385.893 344.408 388.536 343.557 389.837C342.705 391.139 342.207 394.136 340.785 395.461C339.915 396.275 338.923 396.948 337.844 397.454C336.805 398.71 336.098 400.207 335.788 401.808C335.386 404.299 335.788 406.701 335.105 407.713C334.873 408.046 334.57 408.323 334.217 408.523C333.865 408.723 333.471 408.842 333.067 408.871C332.662 408.899 332.257 408.837 331.879 408.688C331.502 408.539 331.163 408.308 330.887 408.011C329.16 406.444 330.927 405.014 331.739 403.608C332.55 402.202 332.815 400.933 332.333 400.467C331.851 400.001 330.622 400.226 328.758 399.157C326.894 398.088 327.464 396.996 327.368 396.168C327.272 395.341 328.637 393.348 329.441 390.986C330.244 388.624 334.125 387.106 335.402 386.286C336.679 385.467 340.656 386.56 341.878 386.23C343.099 385.901 342.464 384.406 341.813 381.956C341.162 379.506 344.103 379.811 344.103 379.811C344.01 378.257 343.795 376.712 343.46 375.191C342.986 373.416 346.015 372.243 346.336 371.68C346.769 370.178 346.956 368.615 346.891 367.053C329.162 377.287 314.361 391.906 303.909 409.508C293.457 427.11 287.705 447.102 287.206 467.567C287.882 468.255 288.497 468.999 289.045 469.793C290.114 471.536 291.568 477.023 290.781 478.63C289.993 480.237 290.781 483.29 290.99 484.182C291.199 485.073 293.44 487.106 293.665 489.307C293.89 491.509 298.092 496.474 299.482 495.863C300.872 495.253 302.237 498.844 302.294 499.23C302.614 499.905 303.069 500.508 303.629 501.002C304.19 501.497 304.845 501.872 305.555 502.106C307.492 502.66 311.838 506.87 312.248 507.063C313.394 508.364 314.378 509.8 315.18 511.337C315.348 513.453 316.095 515.483 317.341 517.202C319.43 520.102 325.223 523.918 325.223 523.918C325.223 523.918 328.437 524.007 330.429 522.882C332.421 521.757 332.63 524.441 333.731 524.987C334.832 525.533 334.398 526.594 336.205 529.341C338.013 532.089 338.391 534.829 337.965 535.897C337.539 536.966 334.326 539.255 333.289 540.718C332.253 542.18 335.748 547.691 336.238 548.631C336.728 549.571 339.516 550.616 340.552 550.937C341.588 551.258 342.078 551.74 344.135 556.296C346.192 560.851 359.85 569.15 359.85 569.15C359.85 569.15 367.129 573.167 369.957 573.489C372.785 573.81 372.857 574.975 375.749 575.987C378.642 577 383.566 586.062 383.566 586.062C383.566 586.062 383.824 586.705 384.169 587.54C393.961 589.402 403.948 590.023 413.895 589.388C413.928 588.512 414.054 587.642 414.273 586.793C415.012 584.174 419.543 584.19 422.692 583.475C425.842 582.76 427.569 581.209 428.051 578.703C428.533 576.196 428.694 576.501 429.907 575.224C431.12 573.947 433.659 574.099 434.856 573.617C436.053 573.135 436.865 571.769 437.668 569.889C438.471 568.009 439.821 564.539 443.067 563.317C446.313 562.096 444.184 561.229 444.947 560.104C445.71 558.979 444.529 556.746 444.666 555.042C444.802 553.339 449.928 550.182 451.302 549.097C452.676 548.013 453.318 544.14 454.515 541.553C455.713 538.966 452.467 538.315 451.599 538.548Z" fill="#47B27C"/>
<path d="M355.142 368.652C355.142 368.652 351.599 367.929 350.498 370.491C349.397 373.054 349.695 373.802 348.972 374.115C348.248 374.428 346.786 373.986 346.521 374.774L345.188 378.702C345.832 378.329 346.564 378.135 347.308 378.14C348.393 378.204 349.132 374.725 350.522 374.926C351.912 375.127 354.459 376.276 353.776 377.272C352.854 378.375 351.855 379.411 350.787 380.373C350.787 380.373 348.425 380.454 348.007 381.113C347.691 381.879 347.506 382.694 347.461 383.523C347.461 383.523 349.51 382.414 350.892 383.949C352.274 385.483 357.174 385.491 357.801 384.752C358.428 384.013 358.042 381.643 359.408 380.365C360.774 379.088 363.529 379.297 364.044 378.084C364.558 376.871 366.1 375.063 364.694 374.292C363.288 373.52 359.279 373.633 358.717 373.785C358.155 373.938 356.307 372.878 356.25 371.223C356.195 370.262 355.802 369.352 355.142 368.652Z" fill="#47B27C"/>
<path d="M375.621 355.227C369.475 356.872 363.471 359.006 357.665 361.606C359.207 361.71 361.818 361.79 362.758 361.228C364.132 360.425 364.831 362.136 365.811 362.835C366.791 363.534 368.045 362.875 369.29 363.638C370.535 364.402 371.13 365.454 370.768 366.185C370.407 366.916 368.84 366.989 370.101 367.872C371.363 368.756 372.592 369.6 372.126 370.403C371.66 371.206 370.519 371.632 370.399 372.379C370.278 373.127 368.792 374.637 370.76 376.099C372.728 377.561 374.874 378.413 375.187 379.313C375.5 380.213 376.151 382.31 378.039 381.964C379.927 381.619 380.771 382.35 382.169 381.337C383.566 380.325 383.51 376.846 383.703 376.075C383.896 375.304 384.225 372.677 386.539 371.825C388.853 370.973 387.985 368.611 391.054 367.294C394.123 365.976 395.256 366.073 395.393 365.084C395.529 364.096 396.196 364.835 395.891 362.787C395.585 360.738 396.132 359.244 394.445 359.453C392.757 359.661 390.813 360.746 390.572 359.854C390.273 358.64 389.622 357.542 388.7 356.697C387.696 355.934 387.535 356.215 386.29 355.99C385.365 355.922 384.463 355.676 383.631 355.267C382.884 354.833 382.643 355.46 382.41 354.56C382.392 354.232 382.441 353.904 382.554 353.596C380.248 354.07 377.935 354.608 375.621 355.227Z" fill="#47B27C"/>
<path d="M392.749 410.686C392.749 410.686 382.9 413.972 382.9 418.094C382.9 422.215 382.096 429.8 378.706 432.089C375.315 434.379 367.458 435.182 365.217 440.437C362.975 445.691 358.38 451.267 353.165 457.308C347.951 463.35 349.076 464.579 349.148 466.041C349.221 467.504 356.17 460.755 359.312 463.374C362.453 465.993 356.484 475.16 360.991 474.533C365.498 473.907 371.073 453.974 373.934 456.296C380.224 461.414 393.055 457.766 389.287 452.528C385.519 447.29 386.563 442.469 387.816 440.163C389.07 437.858 392.428 436.387 392.741 432.62C393.055 428.852 390.436 423.782 392.324 421.372C394.212 418.962 398.084 419.066 397.947 416.134C397.811 413.201 398.317 408.164 392.749 410.686Z" fill="#47B27C"/>
<path d="M387.608 334.299L415.036 361.727H340.938L368.366 334.299H387.608Z" fill="white"/>
<path d="M387.608 324.505H368.366V334.298H387.608V324.505Z" fill="white"/>
<path d="M380.674 333.624H368.366V334.299H380.674V333.624Z" fill="#BFE3CF"/>
<path d="M375.283 334.299V329.318C375.284 329.052 375.233 328.789 375.132 328.543C375.031 328.298 374.883 328.075 374.696 327.886C374.508 327.698 374.286 327.549 374.04 327.447C373.795 327.345 373.532 327.293 373.267 327.293C372.73 327.293 372.215 327.506 371.835 327.886C371.455 328.266 371.242 328.781 371.242 329.318V334.299H375.283Z" fill="#96D0B1"/>
<path d="M387.608 323.275H368.366V324.505H387.608V323.275Z" fill="#BFE3CF"/>
<path d="M368.374 334.299H366.084V336.589H368.374V334.299Z" fill="white"/>
<path d="M366.084 336.588H363.794V338.878H366.084V336.588Z" fill="white"/>
<path d="M363.803 338.87H361.513V341.16H363.803V338.87Z" fill="white"/>
<path d="M361.513 341.16H359.223V343.45H361.513V341.16Z" fill="white"/>
<path d="M359.223 343.441H356.934V345.731H359.223V343.441Z" fill="white"/>
<path d="M356.942 345.73H354.652V348.02H356.942V345.73Z" fill="white"/>
<path d="M354.652 348.013H352.362V350.302H354.652V348.013Z" fill="white"/>
<path d="M352.37 350.303H350.08V352.592H352.37V350.303Z" fill="white"/>
<path d="M350.08 352.584H347.791V354.874H350.08V352.584Z" fill="white"/>
<path d="M347.799 354.874H345.509V357.164H347.799V354.874Z" fill="white"/>
<path d="M345.509 357.155H343.219V359.445H345.509V357.155Z" fill="white"/>
<path d="M343.227 359.445H340.938V361.735H343.227V359.445Z" fill="white"/>
<path d="M382.964 336.299H366.084V336.588H382.964V336.299Z" fill="#E4F4EB"/>
<path d="M385.253 338.589H363.794V338.878H385.253V338.589Z" fill="#E4F4EB"/>
<path d="M387.543 340.87H361.513V341.159H387.543V340.87Z" fill="#E4F4EB"/>
<path d="M389.825 343.16H359.223V343.449H389.825V343.16Z" fill="#E4F4EB"/>
<path d="M392.107 345.441H356.934V345.731H392.107V345.441Z" fill="#E4F4EB"/>
<path d="M394.396 347.731H354.652V348.021H394.396V347.731Z" fill="#E4F4EB"/>
<path d="M398.968 352.303H350.08V352.592H398.968V352.303Z" fill="#E4F4EB"/>
<path d="M396.678 350.014H352.362V350.303H396.678V350.014Z" fill="#E4F4EB"/>
<path d="M401.249 354.585H347.791V354.874H401.249V354.585Z" fill="#E4F4EB"/>
<path d="M403.539 356.874H345.509V357.163H403.539V356.874Z" fill="#E4F4EB"/>
<path d="M405.821 359.156H343.219V359.445H405.821V359.156Z" fill="#E4F4EB"/>
<g opacity="0.5">
<path d="M377.983 375.602C392.448 375.602 404.174 374.037 404.174 372.107C404.174 370.177 392.448 368.612 377.983 368.612C363.518 368.612 351.792 370.177 351.792 372.107C351.792 374.037 363.518 375.602 377.983 375.602Z" fill="#05545E"/>
</g>
<path opacity="0.59" d="M381.47 470.517C381.47 472.028 362.188 473.257 338.334 473.257C314.481 473.257 295.199 472.028 295.199 470.517C295.199 469.007 314.481 467.77 338.334 467.77C362.188 467.77 381.47 468.999 381.47 470.517Z" fill="#05545E"/>
<path d="M348.674 434.717H352.153C352.615 434.718 353.058 434.895 353.394 435.211C353.73 435.527 353.932 435.96 353.961 436.42L355.142 455.983C355.157 456.23 355.122 456.478 355.038 456.711C354.954 456.943 354.824 457.157 354.654 457.337C354.485 457.518 354.281 457.662 354.054 457.761C353.827 457.859 353.582 457.911 353.334 457.911H346.553C346.298 457.91 346.046 457.856 345.813 457.752C345.58 457.647 345.372 457.495 345.201 457.305C345.031 457.115 344.902 456.891 344.824 456.648C344.745 456.405 344.719 456.149 344.746 455.895L346.867 436.332C346.916 435.887 347.128 435.476 347.462 435.178C347.795 434.88 348.227 434.716 348.674 434.717Z" fill="#96D0B1"/>
<path d="M363.288 434.717H366.767C367.228 434.718 367.672 434.895 368.008 435.211C368.343 435.527 368.546 435.96 368.575 436.42L369.756 455.983C369.771 456.23 369.736 456.478 369.652 456.711C369.568 456.943 369.437 457.157 369.268 457.337C369.099 457.518 368.894 457.662 368.667 457.761C368.44 457.859 368.196 457.911 367.948 457.911H361.167C360.912 457.91 360.66 457.856 360.427 457.752C360.194 457.647 359.986 457.495 359.815 457.305C359.645 457.115 359.516 456.891 359.438 456.648C359.359 456.405 359.333 456.149 359.36 455.895L361.481 436.332C361.53 435.887 361.742 435.476 362.076 435.178C362.409 434.88 362.841 434.716 363.288 434.717Z" fill="#96D0B1"/>
<path d="M361.569 430.707H338.319C337.493 430.707 336.824 431.376 336.824 432.201V433.222C336.824 434.047 337.493 434.716 338.319 434.716H361.569C362.395 434.716 363.064 434.047 363.064 433.222V432.201C363.064 431.376 362.395 430.707 361.569 430.707Z" fill="#96D0B1"/>
<path d="M325.801 434.717H329.28C329.743 434.716 330.188 434.892 330.526 435.208C330.863 435.525 331.067 435.958 331.096 436.42L332.277 455.983C332.291 456.23 332.255 456.478 332.17 456.711C332.085 456.944 331.954 457.157 331.784 457.338C331.614 457.518 331.409 457.662 331.182 457.761C330.954 457.859 330.709 457.911 330.461 457.911H323.688C323.433 457.912 323.18 457.858 322.946 457.754C322.713 457.65 322.504 457.498 322.333 457.307C322.163 457.117 322.034 456.893 321.956 456.649C321.878 456.406 321.852 456.149 321.881 455.895L324.002 436.332C324.049 435.888 324.26 435.477 324.592 435.179C324.924 434.881 325.355 434.716 325.801 434.717Z" fill="#96D0B1"/>
<path d="M328.163 430.707H304.913C304.088 430.707 303.418 431.376 303.418 432.201V433.222C303.418 434.047 304.088 434.716 304.913 434.716H328.163C328.989 434.716 329.658 434.047 329.658 433.222V432.201C329.658 431.376 328.989 430.707 328.163 430.707Z" fill="#96D0B1"/>
<path d="M322.813 443.177C323.182 445.065 324.58 447.379 325.488 451.516C326.396 455.654 326.645 459.606 324.886 460.129H319.527C319.527 460.129 315.02 459.43 312.947 459.944C310.874 460.458 308.689 459.855 308.199 458.217C308.199 458.217 309.179 442.02 309.002 439.642C308.898 438.34 308.817 435.994 308.769 434.146C308.757 433.793 308.817 433.441 308.944 433.111C309.071 432.781 309.263 432.48 309.509 432.226C309.755 431.972 310.049 431.769 310.375 431.632C310.701 431.494 311.051 431.423 311.404 431.423H321.463C321.639 431.424 321.813 431.46 321.974 431.529C322.136 431.598 322.282 431.699 322.404 431.826C322.526 431.952 322.621 432.102 322.685 432.266C322.748 432.43 322.778 432.605 322.773 432.781C322.684 435.544 322.532 441.723 322.813 443.177Z" fill="white"/>
<path d="M318.916 444.149C318.796 446.037 320.804 450.174 321.897 453.894C322.989 457.614 322.258 459.735 320.402 460.129H324.885C326.645 459.606 326.404 455.654 325.488 451.516C324.572 447.379 323.182 445.089 322.813 443.177C322.531 441.723 322.684 435.552 322.764 432.781C322.77 432.605 322.74 432.43 322.677 432.266C322.613 432.102 322.518 431.952 322.396 431.826C322.274 431.699 322.128 431.598 321.966 431.529C321.804 431.46 321.631 431.424 321.455 431.423H320.459C320.256 431.424 320.056 431.465 319.87 431.543C319.684 431.622 319.515 431.737 319.373 431.881C319.231 432.025 319.119 432.196 319.044 432.383C318.968 432.571 318.93 432.771 318.932 432.973C318.964 436.034 319.012 442.711 318.916 444.149Z" fill="#BFE3CF"/>
<path d="M311.509 448.149C311.477 448.149 311.446 448.137 311.424 448.114C311.401 448.091 311.388 448.061 311.388 448.029C311.388 447.322 311.316 446.334 311.236 445.289C311.139 443.963 311.027 442.461 311.027 441.087V434.29C311.027 434.26 311.038 434.23 311.059 434.208C311.08 434.186 311.109 434.172 311.139 434.17C311.171 434.17 311.202 434.183 311.225 434.205C311.247 434.228 311.26 434.258 311.26 434.29V441.103C311.26 442.469 311.372 443.963 311.469 445.289C311.549 446.382 311.621 447.33 311.621 448.045C311.618 448.073 311.604 448.098 311.584 448.117C311.563 448.136 311.537 448.148 311.509 448.149Z" fill="#BFE3CF"/>
<path d="M316.755 457.461C316.728 457.461 316.701 457.451 316.681 457.434C316.66 457.416 316.646 457.391 316.643 457.364C316.643 457.163 315.839 452.544 315.839 451.829C315.839 451.114 315.839 448.896 315.839 448.808C315.839 448.776 315.852 448.745 315.874 448.723C315.897 448.7 315.928 448.688 315.96 448.688C315.99 448.69 316.019 448.703 316.04 448.726C316.061 448.748 316.072 448.777 316.072 448.808C316.072 448.808 316.032 451.098 316.072 451.813C316.112 452.528 316.876 457.276 316.876 457.324C316.879 457.34 316.879 457.355 316.876 457.371C316.873 457.386 316.867 457.401 316.858 457.414C316.849 457.427 316.837 457.438 316.823 457.446C316.81 457.454 316.795 457.459 316.779 457.461H316.755Z" fill="#BFE3CF"/>
<path d="M332.068 431.463H342.512C343.061 431.465 343.588 431.672 343.991 432.044C344.394 432.416 344.643 432.925 344.69 433.471C344.987 436.966 345.493 444.35 345.397 450.214C345.397 450.214 346.803 454.601 346.674 456.73C346.545 458.859 343.814 459.831 342.48 459.984C341.147 460.137 338.945 458.98 337.001 459.655C335.08 460.19 333.066 460.308 331.096 460C330.18 459.775 329.569 455.091 330.292 451.677C331.016 448.262 332.116 441.088 331.634 438.822C331.152 436.557 329.81 432.033 332.068 431.463Z" fill="white"/>
<path d="M339.25 458.481V458.369H339.138C339.138 458.256 339.773 451.347 339.805 451.042L339.467 446.551C339.467 446.519 339.478 446.489 339.499 446.465C339.52 446.441 339.549 446.426 339.58 446.422C339.595 446.421 339.611 446.423 339.625 446.428C339.64 446.433 339.653 446.442 339.665 446.452C339.676 446.463 339.685 446.475 339.691 446.49C339.697 446.504 339.7 446.519 339.7 446.535L340.038 451.034L339.371 458.264C339.363 458.393 339.355 458.481 339.25 458.481Z" fill="#BFE3CF"/>
<path d="M335.289 444.389C335.259 444.387 335.23 444.374 335.209 444.351C335.189 444.329 335.177 444.299 335.177 444.269V434.716C335.177 434.686 335.189 434.656 335.209 434.634C335.23 434.611 335.259 434.598 335.289 434.596C335.321 434.596 335.352 434.608 335.375 434.631C335.397 434.654 335.41 434.684 335.41 434.716V444.269C335.41 444.301 335.397 444.331 335.375 444.354C335.352 444.377 335.321 444.389 335.289 444.389Z" fill="#BFE3CF"/>
<path d="M299.433 431.463H303.876C304.68 431.463 306.712 432.09 306.664 434.05C306.664 434.05 306.439 441.449 307.034 444.647C307.628 447.844 308.713 449.09 308.544 452.231L308.199 458.257C306.659 458.076 305.103 458.076 303.563 458.257C301.506 458.57 297.939 460.305 296.115 458.803C294.292 457.301 295.682 446.117 295.706 443.868C295.706 440.943 296.115 438.573 295.481 435.472C295.047 433.335 296.316 431.463 299.433 431.463Z" fill="white"/>
<path d="M302.286 444.238C302.326 446.648 301.426 453.284 301.562 455.702C301.635 457.092 302.012 457.928 302.824 458.361C303.089 458.305 303.33 458.249 303.563 458.217C305.042 458.045 306.535 458.045 308.014 458.217L308.207 458.145L308.544 452.215C308.713 449.074 307.62 447.829 307.034 444.631C306.447 441.434 306.664 434.034 306.664 434.034C306.712 432.074 304.656 431.447 303.876 431.447H302.872C302.332 431.449 301.815 431.665 301.434 432.048C301.053 432.43 300.839 432.948 300.839 433.488V436.597C300.839 438.26 302.229 441.819 302.286 444.238Z" fill="#BFE3CF"/>
<path d="M297.12 456.617C297.092 456.617 297.066 456.608 297.045 456.59C297.025 456.572 297.011 456.548 297.007 456.521C296.704 454.471 296.62 452.394 296.758 450.326C296.758 450.311 296.761 450.296 296.767 450.282C296.774 450.268 296.783 450.256 296.794 450.246C296.806 450.236 296.819 450.229 296.834 450.225C296.848 450.221 296.864 450.22 296.879 450.222C296.909 450.224 296.938 450.238 296.959 450.26C296.98 450.282 296.991 450.312 296.991 450.342C296.858 452.392 296.942 454.449 297.24 456.481C297.245 456.511 297.238 456.543 297.22 456.568C297.202 456.594 297.174 456.611 297.144 456.617H297.12Z" fill="#BFE3CF"/>
<path d="M364.992 431.776C365.424 431.776 365.84 431.936 366.161 432.226C366.481 432.515 366.683 432.913 366.727 433.343C367.113 437.159 368.117 446.808 368.623 448.993C369.266 451.733 370.543 459.574 365.409 459.944H353.985C353.101 459.944 352.065 458.409 352.523 455.927C353.886 448.953 354.5 441.853 354.355 434.749C354.266 433.206 355.158 431.8 356.668 431.8L364.992 431.776Z" fill="white"/>
<path d="M354.355 434.725C354.5 441.829 353.886 448.929 352.523 455.903C352.065 458.409 353.101 459.92 353.985 459.92H355.463C356.007 459.92 356.528 459.704 356.912 459.32C357.296 458.936 357.512 458.414 357.512 457.871V432.62C357.518 432.508 357.5 432.395 357.459 432.29C357.419 432.186 357.357 432.09 357.278 432.011C357.198 431.931 357.103 431.869 356.998 431.829C356.893 431.789 356.781 431.771 356.668 431.776C355.126 431.776 354.266 433.182 354.355 434.725Z" fill="#BFE3CF"/>
<path d="M360.83 445.924C360.815 445.925 360.8 445.923 360.786 445.919C360.772 445.914 360.759 445.907 360.748 445.897C360.737 445.887 360.728 445.875 360.721 445.862C360.714 445.849 360.71 445.834 360.709 445.82C360.332 442.534 359.81 441.955 359.802 441.947C359.792 441.921 359.792 441.893 359.802 441.867V435.48C359.804 435.449 359.817 435.42 359.84 435.4C359.862 435.379 359.891 435.367 359.922 435.367C359.952 435.367 359.981 435.379 360.002 435.4C360.023 435.421 360.035 435.45 360.035 435.48V441.77C360.171 441.955 360.629 442.767 360.975 445.739C360.977 445.77 360.967 445.8 360.948 445.824C360.928 445.848 360.901 445.864 360.87 445.868L360.83 445.924Z" fill="#BFE3CF"/>
<path d="M365.321 455.83C365.3 455.838 365.278 455.838 365.257 455.83C365.243 455.824 365.232 455.814 365.222 455.803C365.213 455.791 365.206 455.778 365.202 455.763C365.198 455.749 365.197 455.733 365.2 455.719C365.203 455.704 365.208 455.69 365.217 455.678C366.189 453.811 366.527 451.679 366.181 449.604L365.498 445.812C365.498 445.797 365.501 445.782 365.506 445.769C365.512 445.755 365.52 445.743 365.531 445.732C365.541 445.722 365.554 445.713 365.567 445.708C365.581 445.702 365.596 445.699 365.61 445.699C365.625 445.699 365.64 445.702 365.653 445.708C365.667 445.713 365.679 445.722 365.69 445.732C365.7 445.743 365.709 445.755 365.714 445.769C365.72 445.782 365.723 445.797 365.723 445.812L366.406 449.604C366.77 451.731 366.422 453.92 365.418 455.83C365.403 455.839 365.386 455.843 365.369 455.843C365.352 455.843 365.336 455.839 365.321 455.83Z" fill="#BFE3CF"/>
<path d="M370.35 432.001L376.778 432.234C377.147 432.246 377.501 432.389 377.774 432.638C378.048 432.887 378.225 433.225 378.272 433.592L381.116 456.208C381.142 456.421 381.123 456.637 381.059 456.842C380.996 457.047 380.89 457.236 380.748 457.397C380.606 457.558 380.431 457.687 380.236 457.775C380.04 457.864 379.828 457.91 379.614 457.911H371.186C370.923 457.911 370.663 457.858 370.422 457.755C370.181 457.652 369.963 457.5 369.782 457.31C369.6 457.12 369.46 456.895 369.368 456.649C369.277 456.403 369.237 456.141 369.25 455.878L370.35 432.001Z" fill="white"/>
<path d="M375.187 456.658C374.777 454.786 373.813 448.439 373.95 446.527C374.054 445.016 374.392 436.886 374.528 433.479C374.536 433.305 374.508 433.131 374.448 432.967C374.388 432.803 374.295 432.653 374.177 432.525C374.058 432.397 373.915 432.294 373.756 432.222C373.597 432.15 373.425 432.111 373.251 432.105L370.35 432.001L369.25 455.878C369.237 456.141 369.277 456.403 369.368 456.649C369.46 456.895 369.6 457.12 369.782 457.31C369.963 457.5 370.181 457.652 370.422 457.755C370.663 457.858 370.923 457.911 371.186 457.911H374.681C374.87 457.767 375.018 457.575 375.107 457.354C375.196 457.133 375.224 456.893 375.187 456.658Z" fill="#BFE3CF"/>
<path d="M299.739 429.35C299.732 429.092 299.817 428.839 299.979 428.638C300.141 428.436 300.369 428.299 300.622 428.249C307.857 426.954 315.19 426.276 322.539 426.225H342.295C342.517 426.225 342.738 426.269 342.943 426.354C343.148 426.439 343.334 426.564 343.491 426.722C343.648 426.879 343.772 427.066 343.856 427.272C343.941 427.477 343.983 427.698 343.982 427.92V429.711C343.982 430.159 343.805 430.588 343.488 430.904C343.172 431.221 342.743 431.399 342.295 431.399H300.839C300.695 431.4 300.552 431.372 300.419 431.318C300.285 431.263 300.164 431.183 300.061 431.081C299.959 430.98 299.878 430.859 299.823 430.726C299.767 430.593 299.739 430.45 299.739 430.306V429.35Z" fill="white"/>
<path d="M338.335 427.599V430.105C338.336 430.414 338.23 430.714 338.035 430.954C337.84 431.195 337.569 431.36 337.266 431.423H342.311C342.759 431.423 343.188 431.245 343.504 430.929C343.821 430.612 343.999 430.183 343.999 429.736V427.944C344 427.722 343.957 427.502 343.873 427.296C343.788 427.09 343.664 426.904 343.507 426.746C343.351 426.588 343.164 426.463 342.959 426.378C342.754 426.293 342.534 426.249 342.311 426.249H336.985C337.343 426.249 337.686 426.391 337.939 426.644C338.192 426.897 338.335 427.241 338.335 427.599Z" fill="#BFE3CF"/>
<path d="M322.082 431.544H310.762C310.73 431.544 310.699 431.531 310.676 431.508C310.654 431.486 310.641 431.455 310.641 431.423C310.643 431.392 310.657 431.364 310.679 431.343C310.701 431.322 310.731 431.31 310.762 431.311H322.082C322.112 431.31 322.142 431.322 322.164 431.343C322.187 431.364 322.2 431.392 322.202 431.423C322.202 431.455 322.189 431.486 322.167 431.508C322.144 431.531 322.114 431.544 322.082 431.544Z" fill="#96D0B1"/>
<path d="M304.696 431.543H300.84C300.808 431.543 300.777 431.53 300.754 431.508C300.732 431.485 300.719 431.454 300.719 431.422C300.719 431.407 300.722 431.392 300.728 431.377C300.734 431.363 300.743 431.35 300.755 431.34C300.766 431.329 300.779 431.321 300.794 431.316C300.809 431.311 300.824 431.309 300.84 431.31H304.696C304.726 431.31 304.756 431.321 304.778 431.342C304.801 431.363 304.814 431.392 304.816 431.422C304.816 431.454 304.804 431.485 304.781 431.508C304.758 431.53 304.728 431.543 304.696 431.543Z" fill="#96D0B1"/>
<path d="M342.512 431.542H332.068C332.043 431.542 332.019 431.534 331.999 431.52C331.979 431.506 331.964 431.485 331.956 431.462C331.958 431.432 331.971 431.403 331.994 431.382C332.016 431.361 332.045 431.35 332.076 431.35H342.52C342.55 431.35 342.579 431.361 342.6 431.383C342.621 431.404 342.633 431.432 342.633 431.462C342.624 431.487 342.608 431.508 342.586 431.522C342.564 431.537 342.538 431.544 342.512 431.542Z" fill="#96D0B1"/>
<path d="M354.788 430.514V428.658C354.788 428.478 354.825 428.299 354.896 428.133C354.968 427.967 355.073 427.818 355.205 427.694C355.337 427.571 355.493 427.475 355.663 427.415C355.833 427.354 356.014 427.329 356.194 427.341C360.501 427.614 372.761 428.482 375.476 428.835C377.011 429.044 377.581 429.823 377.758 430.595C377.797 430.795 377.79 431.001 377.738 431.198C377.686 431.396 377.589 431.578 377.456 431.733C377.323 431.888 377.157 432.01 376.97 432.091C376.783 432.172 376.58 432.21 376.376 432.201C373.259 432.073 365.49 431.752 363.786 431.752H356.058C355.726 431.754 355.407 431.625 355.169 431.394C354.931 431.162 354.795 430.846 354.788 430.514Z" fill="white"/>
<path d="M354.788 428.594V430.515C354.788 430.849 354.921 431.17 355.158 431.407C355.394 431.643 355.715 431.776 356.05 431.776H359.906C359.725 431.777 359.546 431.742 359.379 431.674C359.212 431.605 359.06 431.504 358.932 431.376C358.804 431.248 358.703 431.096 358.635 430.929C358.566 430.762 358.531 430.583 358.532 430.402V428.924C358.532 428.12 359.561 427.574 360.348 427.622C358.645 427.518 357.134 427.389 356.122 427.333C355.95 427.323 355.779 427.349 355.617 427.408C355.456 427.467 355.308 427.558 355.183 427.676C355.058 427.794 354.959 427.937 354.891 428.094C354.823 428.252 354.788 428.423 354.788 428.594Z" fill="#BFE3CF"/>
<path d="M365.321 431.921H356.05C356.019 431.919 355.991 431.905 355.97 431.883C355.949 431.86 355.937 431.831 355.937 431.8C355.937 431.77 355.949 431.74 355.97 431.718C355.991 431.695 356.019 431.682 356.05 431.68H365.321C365.352 431.682 365.38 431.695 365.401 431.718C365.422 431.74 365.434 431.77 365.434 431.8C365.435 431.816 365.433 431.831 365.427 431.846C365.422 431.86 365.414 431.874 365.404 431.885C365.393 431.896 365.38 431.905 365.366 431.911C365.352 431.918 365.337 431.921 365.321 431.921Z" fill="#96D0B1"/>
<path d="M376.778 432.346C374.367 432.218 370.64 432.057 370.399 432.105C370.384 432.112 370.368 432.115 370.352 432.115C370.336 432.114 370.32 432.111 370.306 432.104C370.291 432.097 370.279 432.087 370.268 432.075C370.258 432.063 370.25 432.048 370.246 432.033C370.238 432.003 370.242 431.972 370.257 431.945C370.272 431.918 370.297 431.898 370.326 431.888C370.583 431.8 375.757 432.057 376.754 432.113C376.769 432.113 376.784 432.117 376.799 432.123C376.813 432.129 376.825 432.138 376.836 432.149C376.847 432.16 376.855 432.174 376.86 432.188C376.865 432.203 376.867 432.218 376.866 432.234C376.867 432.26 376.858 432.285 376.842 432.306C376.826 432.327 376.803 432.341 376.778 432.346Z" fill="#96D0B1"/>
<path d="M127.335 110.83L41.5394 137.945C40.0888 138.399 38.8181 139.299 37.908 140.516L33.9391 146.028C33.1928 146.959 32.6885 148.06 32.4712 149.233C32.2539 150.407 32.3304 151.616 32.6938 152.752L80.1351 302.869C81.0728 305.833 83.1494 308.303 85.9081 309.736C88.6668 311.169 91.8816 311.447 94.8456 310.51L176.392 284.736C177.852 284.272 179.128 283.358 180.039 282.125L180.111 282.029C180.184 281.924 180.256 281.828 180.32 281.715L183.188 277.514C184.213 276.582 184.948 275.376 185.307 274.039C185.666 272.701 185.633 271.289 185.213 269.97L136.454 115.571C136.171 114.658 135.709 113.81 135.096 113.077C134.484 112.344 133.731 111.739 132.883 111.298C132.036 110.858 131.109 110.589 130.156 110.509C129.204 110.429 128.245 110.538 127.335 110.83Z" fill="#05545E"/>
<path d="M180.497 279.04L94.7008 306.131C93.791 306.424 92.8322 306.533 91.8799 306.452C90.9276 306.372 90.0007 306.104 89.1528 305.663C88.3048 305.222 87.5527 304.618 86.9398 303.884C86.3269 303.151 85.8654 302.304 85.5821 301.391L36.7991 147.056C36.5066 146.146 36.3974 145.188 36.4777 144.235C36.5581 143.283 36.8264 142.356 37.2672 141.508C37.708 140.66 38.3125 139.908 39.0458 139.295C39.779 138.682 40.6265 138.221 41.5393 137.937L127.335 110.83C128.245 110.538 129.204 110.429 130.156 110.509C131.108 110.589 132.035 110.858 132.883 111.298C133.731 111.739 134.483 112.344 135.096 113.077C135.709 113.81 136.171 114.658 136.454 115.571L185.237 269.921C185.529 270.831 185.639 271.79 185.558 272.742C185.478 273.695 185.21 274.622 184.769 275.469C184.328 276.317 183.724 277.07 182.99 277.682C182.257 278.295 181.41 278.757 180.497 279.04Z" fill="#FFC52E"/>
<path d="M143.122 290.858L140.487 281.932L151.654 278.405L154.33 287.315L143.122 290.858Z" fill="#FF9100"/>
<path d="M85.0679 130.506C84.9161 130.037 84.9071 129.533 85.0418 129.059C85.1766 128.585 85.4491 128.161 85.8249 127.842C86.2006 127.522 86.6627 127.322 87.1525 127.265C87.6423 127.209 88.1379 127.299 88.5764 127.525C89.0149 127.75 89.3766 128.101 89.6157 128.532C89.8548 128.963 89.9606 129.456 89.9195 129.947C89.8785 130.438 89.6925 130.906 89.3852 131.292C89.0778 131.678 88.663 131.963 88.1931 132.113C87.5656 132.313 86.8845 132.256 86.2988 131.955C85.7131 131.653 85.2705 131.133 85.0679 130.506Z" fill="black"/>
<path d="M92.9333 128.015C93.3806 129.529 93.2161 131.158 92.4751 132.552C91.7341 133.945 90.4759 134.993 88.9708 135.468C87.4657 135.944 85.8341 135.81 84.4267 135.096C83.0193 134.381 81.9485 133.143 81.4446 131.647L45.1787 143.111C44.5961 143.296 44.1106 143.704 43.8289 144.247C43.5472 144.789 43.4923 145.421 43.6763 146.004L90.8364 295.213C91.021 295.795 91.4293 296.281 91.9716 296.562C92.5139 296.844 93.1459 296.899 93.7287 296.715L178.247 269.978C178.536 269.887 178.805 269.74 179.037 269.546C179.269 269.351 179.46 269.113 179.6 268.844C179.74 268.575 179.825 268.281 179.85 267.98C179.876 267.678 179.842 267.374 179.75 267.085L132.598 117.9C132.413 117.318 132.005 116.832 131.462 116.551C130.92 116.269 130.288 116.214 129.705 116.398L92.9333 128.015Z" fill="#BFE3CF"/>
<path d="M121.543 210.445C119.937 209.214 117.996 208.498 115.976 208.39C113.956 208.283 111.95 208.789 110.223 209.842C108.099 211.167 106.531 213.221 105.812 215.619L85.791 279.233L90.8364 295.204C90.927 295.494 91.0737 295.762 91.2681 295.995C91.4625 296.227 91.7009 296.419 91.9695 296.559C92.2381 296.699 92.5317 296.785 92.8336 296.812C93.1354 296.839 93.4396 296.806 93.7287 296.715L178.368 269.977C178.64 269.892 178.893 269.754 179.112 269.571C179.331 269.388 179.512 269.164 179.644 268.911C179.776 268.658 179.857 268.381 179.882 268.097C179.907 267.812 179.876 267.526 179.79 267.254L174.696 251.137L121.543 210.445Z" fill="#319B89"/>
<path d="M121.744 210.22C120.404 209.263 118.859 208.635 117.232 208.386C115.605 208.136 113.942 208.274 112.378 208.786C110.814 209.298 109.392 210.171 108.228 211.334C107.064 212.498 106.189 213.919 105.675 215.482L102.181 227.252C102.639 227.847 103.249 228.409 103.868 228.208C104.824 227.911 104.478 226.312 104.478 226.312C104.478 226.312 107.033 229.261 109.042 228.835C110.649 228.505 110.07 226.28 110.07 226.28C110.985 227.731 112.354 228.839 113.965 229.431C115.575 230.022 117.336 230.063 118.973 229.549C120.61 229.034 122.03 227.992 123.012 226.586C123.994 225.179 124.483 223.487 124.403 221.773C124.403 221.773 125.206 223.902 126.709 223.267C128.597 222.464 128.998 218.583 128.998 218.583C128.998 218.583 129.625 220.086 130.605 219.78C131.224 219.588 131.409 218.776 131.409 218.029L121.744 210.22Z" fill="#E4F4EB"/>
<path d="M179.742 267.085L174.696 251.113L164.742 243.465C156.179 254.684 144.363 262.988 130.907 267.244C117.45 271.5 103.008 271.501 89.551 267.246L85.791 279.233L90.8123 295.124C91.0079 295.727 91.4327 296.228 91.995 296.52C92.5574 296.811 93.2119 296.87 93.8171 296.683L178.231 269.977C178.813 269.791 179.297 269.383 179.58 268.841C179.863 268.3 179.921 267.669 179.742 267.085Z" fill="#107075"/>
<path d="M127.322 243.908L122.749 245.354L125.37 253.643L129.944 252.196L127.322 243.908Z" fill="#96D0B1"/>
<path d="M129.151 249.681L124.578 251.127L125.375 253.647L129.948 252.201L129.151 249.681Z" fill="#107075"/>
<path d="M147.605 243.465L152.771 241.079L153.888 244.614L148.505 246.317L143.122 248.021L142.006 244.486L147.605 243.465Z" fill="#107075"/>
<path d="M105.933 256.649L111.098 254.263L112.223 257.798L106.832 259.501L101.45 261.204L100.333 257.669L105.933 256.649Z" fill="#107075"/>
<path d="M164.453 238.998L127.014 250.84L89.5752 262.683L90.5393 266.193L128.115 254.311L165.682 242.421L164.453 238.998Z" fill="#96D0B1"/>
<path d="M150.891 243.288L152.329 246.646L145.581 248.783L144.737 245.24L150.891 243.288Z" fill="#107075"/>
<path d="M103.145 258.392L103.892 261.968L110.648 259.839L109.299 256.448L103.145 258.392Z" fill="#107075"/>
<path d="M125.086 244.743L87.3254 255.581H89.2777C89.2777 255.581 97.7055 254.223 116.457 248.286L125.295 245.482L134.132 242.678C152.884 236.749 160.556 233.037 160.556 233.037L162.163 231.896L125.086 244.743Z" fill="#107075"/>
<path d="M82.8345 252.022L85.7107 252.817L85.1242 251.725L82.8345 252.022Z" fill="#107075"/>
<path d="M124.122 241.69L85.1885 251.917L87.3336 255.581C87.3336 255.581 97.5931 253.878 116.345 247.948L125.182 245.144L134.02 242.333C152.771 236.403 162.139 231.888 162.139 231.888L161.785 227.654L124.122 241.69Z" fill="#96D0B1"/>
<path d="M163.842 226.393L161.946 228.706L161.793 227.469L163.842 226.393Z" fill="#107075"/>
<path d="M163.89 222.81C162.027 224.416 152.996 231.551 133.931 237.576L123.832 240.79L113.734 244.004C94.6687 250.029 83.2041 249.386 80.7376 249.145C80.699 249.142 80.6601 249.15 80.6262 249.169C80.5923 249.188 80.5648 249.216 80.5475 249.251C80.5301 249.286 80.5236 249.325 80.5289 249.364C80.5341 249.402 80.5509 249.438 80.5769 249.467L82.8345 252.054C82.8345 252.054 93.1021 252.255 114.232 245.57L124.331 242.357L134.429 239.143C155.559 232.459 163.842 226.393 163.842 226.393L164.204 222.978C164.207 222.941 164.2 222.902 164.182 222.869C164.164 222.835 164.137 222.808 164.103 222.79C164.07 222.772 164.032 222.764 163.994 222.767C163.956 222.771 163.92 222.786 163.89 222.81Z" fill="#05545E"/>
<path d="M145.733 237.536C147.453 236.99 148.947 236.813 149.035 237.135L149.574 238.838L143.339 240.814L142.801 239.111C142.697 238.782 144.006 238.075 145.733 237.536Z" fill="#96D0B1"/>
<path d="M143.034 239.858C143.025 239.864 143.013 239.868 143.002 239.868C142.99 239.868 142.979 239.864 142.97 239.858L142.753 239.167C142.624 238.749 144.183 238.01 145.717 237.56C147.252 237.11 148.931 236.757 149.084 237.19L149.236 237.689C149.236 237.701 149.231 237.714 149.222 237.723C149.213 237.732 149.201 237.737 149.188 237.737C149.175 237.737 149.163 237.732 149.154 237.723C149.145 237.714 149.14 237.701 149.14 237.689L148.987 237.19C148.907 236.933 147.557 237.046 145.774 237.624C143.99 238.203 142.801 238.878 142.881 239.135L143.098 239.834C143.092 239.844 143.082 239.852 143.07 239.857C143.059 239.861 143.046 239.861 143.034 239.858Z" fill="#107075"/>
<path d="M143.339 240.813C143.428 241.078 144.89 240.862 146.609 240.315C148.328 239.769 149.654 239.11 149.574 238.837C149.493 238.564 148.023 238.789 146.296 239.335C144.568 239.881 143.251 240.54 143.339 240.813Z" fill="#107075"/>
<path d="M154.772 277.417L143.958 240.613C145.497 239.756 147.189 239.21 148.939 239.006L161.263 275.328L154.772 277.417Z" fill="#96D0B1"/>
<path d="M104.061 250.696C102.333 251.242 101.024 251.949 101.128 252.302L101.666 253.998L107.901 252.029L107.363 250.326C107.258 249.997 105.78 250.173 104.061 250.696Z" fill="#96D0B1"/>
<path d="M107.596 251.066C107.586 251.072 107.575 251.076 107.563 251.076C107.552 251.076 107.541 251.072 107.531 251.066L107.314 250.367C107.234 250.11 105.884 250.222 104.101 250.793C102.317 251.363 101.12 252.054 101.2 252.311L101.353 252.801C101.361 252.81 101.365 252.821 101.365 252.833C101.365 252.845 101.361 252.856 101.353 252.865C101.344 252.872 101.332 252.875 101.321 252.875C101.309 252.875 101.298 252.872 101.289 252.865L101.136 252.367C101.008 251.957 102.566 251.218 104.101 250.76C105.635 250.302 107.314 249.957 107.467 250.399L107.684 251.098C107.676 251.103 107.668 251.107 107.658 251.108C107.649 251.11 107.64 251.109 107.631 251.106C107.622 251.102 107.614 251.097 107.608 251.09C107.602 251.083 107.598 251.075 107.596 251.066Z" fill="#107075"/>
<path d="M107.901 252.021C107.989 252.294 106.664 252.953 104.936 253.499C103.209 254.046 101.723 254.263 101.666 253.989C101.61 253.716 102.904 253.058 104.631 252.519C106.358 251.981 107.804 251.748 107.901 252.021Z" fill="#107075"/>
<path d="M113.099 290.592L102.293 253.796C103.833 252.941 105.525 252.395 107.274 252.189L119.598 288.504L113.099 290.592Z" fill="#96D0B1"/>
<path d="M88.8921 210.654C88.223 209.156 87.0255 207.956 85.5282 207.285C84.0309 206.613 82.3388 206.517 80.7748 207.014C79.2108 207.51 77.8846 208.566 77.0494 209.978C76.2141 211.391 75.9283 213.061 76.2465 214.671C74.9925 215.067 73.9474 215.946 73.3409 217.113C72.7345 218.28 72.6164 219.64 73.0128 220.894C73.4091 222.148 74.2873 223.193 75.4542 223.799C76.6212 224.406 77.9812 224.524 79.2352 224.127L91.9612 220.11C93.2151 219.714 94.2603 218.836 94.8667 217.669C95.4732 216.502 95.5912 215.142 95.1949 213.888C94.7986 212.634 93.9203 211.589 92.7534 210.982C91.5865 210.376 90.2264 210.258 88.9725 210.654H88.8921Z" fill="#E4F4EB"/>
<path d="M98.0991 170.419C97.5042 169.089 96.4404 168.023 95.1105 167.426C93.7806 166.829 92.2776 166.742 90.8877 167.182C89.4979 167.622 88.3184 168.557 87.5741 169.811C86.8297 171.064 86.5725 172.548 86.8514 173.978H86.8112C86.2579 174.151 85.7439 174.431 85.2986 174.802C84.8534 175.173 84.4856 175.628 84.2163 176.142C83.947 176.655 83.7814 177.216 83.729 177.793C83.6766 178.371 83.7384 178.953 83.9109 179.506C84.0834 180.059 84.3632 180.573 84.7344 181.019C85.1055 181.464 85.5607 181.832 86.074 182.101C86.5873 182.37 87.1485 182.536 87.7258 182.588C88.3031 182.641 88.885 182.579 89.4384 182.406L100.766 178.823C101.882 178.469 102.811 177.687 103.35 176.648C103.888 175.609 103.992 174.399 103.639 173.284C103.285 172.168 102.503 171.239 101.464 170.7C100.425 170.162 99.2146 170.058 98.0991 170.411V170.419Z" fill="#E4F4EB"/>
<path d="M68.0518 150.454C67.6994 149.631 67.053 148.967 66.2385 148.594C65.4239 148.22 64.4995 148.163 63.6453 148.434C62.7911 148.705 62.0682 149.284 61.6174 150.058C61.1666 150.833 61.0203 151.747 61.2068 152.624C60.851 152.712 60.5171 152.872 60.2255 153.094C59.9339 153.315 59.6909 153.595 59.5114 153.914C59.3319 154.234 59.2198 154.587 59.1819 154.951C59.144 155.316 59.1811 155.684 59.2911 156.034C59.401 156.383 59.5814 156.707 59.821 156.984C60.0607 157.261 60.3546 157.486 60.6847 157.645C61.0147 157.805 61.3739 157.895 61.74 157.91C62.1062 157.925 62.4715 157.865 62.8136 157.733L69.6907 155.556C70.0465 155.468 70.3804 155.308 70.672 155.086C70.9636 154.864 71.2066 154.585 71.3861 154.266C71.5656 153.946 71.6777 153.593 71.7156 153.229C71.7535 152.864 71.7164 152.496 71.6064 152.146C71.4965 151.797 71.3161 151.473 71.0765 151.196C70.8368 150.919 70.5429 150.694 70.2128 150.534C69.8828 150.375 69.5236 150.285 69.1575 150.27C68.7913 150.255 68.426 150.315 68.0839 150.446L68.0518 150.454Z" fill="#E4F4EB"/>
<path d="M143.958 202.845C143.531 201.887 142.766 201.119 141.81 200.689C140.853 200.259 139.771 200.197 138.771 200.514C137.771 200.831 136.923 201.505 136.389 202.408C135.855 203.311 135.672 204.379 135.876 205.408C135.479 205.534 135.111 205.736 134.792 206.004C134.474 206.272 134.211 206.6 134.02 206.969C133.828 207.338 133.711 207.742 133.675 208.156C133.639 208.571 133.685 208.988 133.811 209.385C133.936 209.782 134.139 210.15 134.407 210.468C134.674 210.787 135.002 211.049 135.372 211.241C136.117 211.628 136.986 211.703 137.788 211.45L145.918 208.879C146.719 208.625 147.387 208.064 147.774 207.318C148.161 206.572 148.236 205.703 147.983 204.902C147.729 204.101 147.168 203.433 146.422 203.046C145.676 202.659 144.807 202.584 144.006 202.837L143.958 202.845Z" fill="#E4F4EB"/>
<path d="M93.0137 297.229C92.5854 297.227 92.1638 297.122 91.7844 296.924C91.4659 296.76 91.184 296.533 90.9561 296.257C90.7282 295.981 90.559 295.661 90.4588 295.317L43.2907 146.1C43.1836 145.764 43.144 145.41 43.1741 145.059C43.2042 144.707 43.3035 144.365 43.4663 144.052C43.6291 143.74 43.8521 143.462 44.1225 143.236C44.393 143.009 44.7055 142.839 45.0421 142.734L81.2919 131.269C81.3897 131.229 81.4994 131.229 81.5972 131.269C81.6449 131.292 81.6873 131.324 81.7219 131.365C81.7564 131.405 81.7824 131.451 81.7981 131.502C82.2468 132.924 83.242 134.11 84.5648 134.798C85.8876 135.487 87.4297 135.622 88.852 135.173C90.2734 134.728 91.46 133.737 92.1514 132.417C92.8427 131.098 92.9824 129.558 92.5396 128.136C92.5095 128.034 92.5204 127.925 92.57 127.832C92.6196 127.739 92.704 127.669 92.8048 127.638L129.593 116.004C129.929 115.897 130.283 115.857 130.635 115.888C130.986 115.918 131.329 116.018 131.642 116.181C131.958 116.348 132.238 116.576 132.465 116.852C132.693 117.128 132.863 117.446 132.967 117.788L180.111 267.005C180.218 267.341 180.258 267.695 180.228 268.046C180.198 268.397 180.098 268.739 179.936 269.052C179.773 269.365 179.55 269.643 179.279 269.869C179.009 270.095 178.696 270.266 178.36 270.371L93.8331 297.101C93.5684 297.186 93.2919 297.23 93.0137 297.229ZM81.1955 132.153L45.2831 143.497C44.8077 143.648 44.4116 143.982 44.1812 144.424C43.9509 144.867 43.9051 145.383 44.0539 145.859L91.2221 295.108C91.2961 295.344 91.416 295.563 91.5749 295.753C91.7338 295.942 91.9285 296.099 92.1479 296.213C92.3674 296.327 92.6072 296.397 92.8536 296.418C93.1001 296.44 93.3483 296.412 93.5841 296.337L178.143 269.608C178.618 269.456 179.014 269.123 179.245 268.68C179.475 268.238 179.521 267.722 179.372 267.246L132.204 117.997C132.052 117.523 131.72 117.127 131.28 116.896C131.06 116.781 130.82 116.712 130.573 116.691C130.326 116.67 130.078 116.699 129.842 116.775L93.4234 128.28C93.7157 129.479 93.6569 130.736 93.254 131.902C92.851 133.068 92.121 134.094 91.151 134.856C90.1811 135.619 89.0122 136.086 87.7839 136.202C86.5557 136.318 85.32 136.078 84.2244 135.511C82.8376 134.8 81.7598 133.605 81.1955 132.153Z" fill="#E4F4EB"/>
<path d="M124.772 178.606C132.418 178.606 138.615 176.729 138.615 174.413C138.615 172.096 132.418 170.219 124.772 170.219C117.127 170.219 110.93 172.096 110.93 174.413C110.93 176.729 117.127 178.606 124.772 178.606Z" fill="black"/>
<path d="M100.935 138.01C100.935 138.01 104.864 153.057 123.117 173.673C123.325 173.906 123.58 174.093 123.866 174.221C124.151 174.348 124.46 174.415 124.772 174.415C125.085 174.415 125.394 174.348 125.679 174.221C125.964 174.093 126.219 173.906 126.427 173.673C144.681 153.057 148.618 138.01 148.618 138.01C149.851 134.243 150.174 130.238 149.561 126.323C148.947 122.408 147.415 118.693 145.089 115.484C142.763 112.276 139.71 109.664 136.18 107.862C132.65 106.061 128.744 105.122 124.78 105.122C120.817 105.122 116.911 106.061 113.381 107.862C109.85 109.664 106.797 112.276 104.472 115.484C102.146 118.693 100.613 122.408 100 126.323C99.3869 130.238 99.7101 134.243 100.943 138.01H100.935ZM112.183 130.208C112.181 127.718 112.918 125.283 114.301 123.212C115.683 121.141 117.649 119.526 119.949 118.572C122.249 117.618 124.781 117.367 127.224 117.852C129.666 118.337 131.91 119.535 133.672 121.296C135.433 123.056 136.633 125.299 137.119 127.741C137.606 130.184 137.357 132.715 136.404 135.016C135.452 137.317 133.838 139.284 131.768 140.668C129.697 142.051 127.263 142.79 124.772 142.79C123.118 142.789 121.48 142.462 119.952 141.828C118.424 141.194 117.036 140.265 115.867 139.094C114.698 137.924 113.771 136.535 113.139 135.006C112.507 133.477 112.182 131.839 112.183 130.184V130.208Z" fill="#E33432"/>
<path d="M124.773 142.798C131.725 142.798 137.362 137.161 137.362 130.209C137.362 123.256 131.725 117.619 124.773 117.619C117.82 117.619 112.183 123.256 112.183 130.209C112.183 137.161 117.82 142.798 124.773 142.798Z" fill="white"/>
<path d="M336.117 396.145C340.843 396.145 344.673 394.986 344.673 393.558C344.673 392.129 340.843 390.971 336.117 390.971C331.392 390.971 327.561 392.129 327.561 393.558C327.561 394.986 331.392 396.145 336.117 396.145Z" fill="black"/>
<path d="M321.399 371.071C321.399 371.071 323.809 380.366 335.105 393.1C335.234 393.245 335.391 393.36 335.568 393.439C335.744 393.518 335.936 393.559 336.129 393.559C336.322 393.559 336.514 393.518 336.69 393.439C336.867 393.36 337.025 393.245 337.153 393.1C348.401 380.366 350.86 371.071 350.86 371.071C351.378 369.516 351.649 367.889 351.663 366.25C351.668 364.006 351.185 361.788 350.248 359.748C349.311 357.709 347.942 355.897 346.236 354.439C344.53 352.98 342.527 351.91 340.367 351.301C338.207 350.693 335.94 350.561 333.724 350.914C331.507 351.268 329.394 352.099 327.53 353.349C325.667 354.6 324.097 356.24 322.929 358.157C321.762 360.074 321.025 362.221 320.769 364.451C320.513 366.681 320.744 368.939 321.447 371.071H321.399ZM328.348 366.25C328.346 364.712 328.801 363.208 329.655 361.928C330.508 360.648 331.722 359.65 333.143 359.06C334.564 358.47 336.128 358.315 337.637 358.614C339.146 358.913 340.533 359.653 341.621 360.74C342.71 361.828 343.451 363.213 343.752 364.722C344.053 366.231 343.899 367.795 343.311 369.217C342.722 370.638 341.726 371.853 340.447 372.708C339.167 373.563 337.664 374.019 336.125 374.019C334.064 374.019 332.087 373.201 330.629 371.744C329.17 370.288 328.35 368.312 328.348 366.25Z" fill="#FFC52E"/>
<path d="M336.117 374.027C340.412 374.027 343.894 370.545 343.894 366.25C343.894 361.955 340.412 358.473 336.117 358.473C331.822 358.473 328.34 361.955 328.34 366.25C328.34 370.545 331.822 374.027 336.117 374.027Z" fill="white"/>
<path d="M178.135 284.439C178.135 284.439 164.951 294.595 156.298 303.52C147.646 312.446 149.534 337.601 166.976 348.913L192.596 325.18L178.135 284.439Z" fill="#D55454"/>
<path d="M142.19 297.655L133.007 309.055C131.525 310.894 130.619 313.13 130.404 315.483C129.432 326.401 126.765 358.537 128.573 364.346C132.975 378.494 174.054 416.327 174.054 416.327L182.521 485.291H273.307L236.205 405.448C236.205 405.448 243.564 370.58 244.754 363.149C247.373 346.751 241.709 321.251 235.113 315.354C231.377 312.02 223.246 311.875 223.246 311.875C223.246 311.875 220.892 303.881 213.163 300.628C206.399 297.808 202.052 300.21 202.052 300.21C201.244 296.725 199.71 293.45 197.552 290.597C195.394 287.745 192.66 285.378 189.527 283.652C185.51 281.498 181.983 283.153 179.211 284.407C179.211 284.407 165.73 250.664 150.666 218.27C149.987 216.816 148.803 215.658 147.334 215.011C145.866 214.364 144.212 214.272 142.68 214.751C140.776 215.337 139.011 216.304 137.492 217.593C135.973 218.883 134.733 220.468 133.847 222.253C132.961 224.037 132.447 225.983 132.337 227.973C132.227 229.962 132.524 231.953 133.208 233.824C139.788 251.949 150.498 281.715 152.932 289.999C154.539 295.462 156.595 304.396 158.387 312.598C161.067 324.835 161.845 337.411 160.693 349.885L152.442 338.267L151.711 317.652L153.952 310.759C154.672 308.55 154.829 306.197 154.408 303.913C153.987 301.629 153.002 299.486 151.542 297.679C150.981 296.98 150.27 296.415 149.462 296.027C148.654 295.638 147.769 295.435 146.872 295.433C145.975 295.43 145.089 295.629 144.279 296.013C143.469 296.398 142.755 296.959 142.19 297.655Z" fill="#EE7767"/>
<path d="M181.919 480.703C190.821 476.027 210.52 468.957 257.303 450.977L248.513 432.049C236.35 432.547 209.371 435.969 178.745 454.689L181.919 480.703Z" fill="#D55454"/>
<path d="M227.191 331.567C227.076 331.568 226.962 331.549 226.853 331.511L189.278 318.182C189.131 318.13 188.999 318.045 188.89 317.934C188.782 317.822 188.7 317.688 188.651 317.54L178.207 284.737C178.126 284.482 178.15 284.206 178.272 283.968C178.395 283.731 178.607 283.552 178.862 283.471C179.116 283.39 179.393 283.414 179.63 283.537C179.867 283.659 180.046 283.871 180.127 284.126L190.459 316.455L225.865 329.004L222.226 312.077C222.189 311.944 222.179 311.806 222.197 311.67C222.216 311.534 222.262 311.403 222.333 311.285C222.404 311.168 222.498 311.066 222.61 310.986C222.722 310.907 222.849 310.851 222.983 310.822C223.117 310.793 223.256 310.793 223.391 310.82C223.525 310.847 223.653 310.901 223.766 310.98C223.879 311.058 223.974 311.159 224.046 311.276C224.119 311.393 224.166 311.523 224.186 311.659L228.203 330.346C228.234 330.492 228.232 330.644 228.198 330.789C228.163 330.934 228.096 331.07 228.002 331.186C227.908 331.302 227.789 331.396 227.655 331.461C227.52 331.525 227.372 331.559 227.223 331.559L227.191 331.567Z" fill="#D55454"/>
<path d="M207.291 324.513C207.06 324.51 206.837 324.43 206.659 324.283C206.481 324.137 206.358 323.935 206.31 323.709L201 300.507C200.97 300.378 200.966 300.245 200.988 300.115C201.01 299.985 201.058 299.86 201.128 299.748C201.198 299.636 201.289 299.539 201.397 299.463C201.505 299.386 201.626 299.331 201.755 299.302C201.884 299.272 202.017 299.268 202.147 299.29C202.277 299.312 202.402 299.36 202.514 299.43C202.626 299.5 202.723 299.591 202.799 299.699C202.876 299.807 202.931 299.928 202.96 300.057L208.279 323.356C208.308 323.485 208.313 323.618 208.291 323.748C208.269 323.879 208.221 324.003 208.151 324.115C208.081 324.227 207.989 324.324 207.882 324.401C207.774 324.477 207.652 324.532 207.524 324.561C207.444 324.554 207.366 324.538 207.291 324.513Z" fill="#D55454"/>
<path d="M154.715 356.36C153.465 356.334 152.226 356.112 151.044 355.701C150.943 355.669 150.849 355.617 150.768 355.549C150.687 355.481 150.621 355.397 150.572 355.303C150.524 355.209 150.494 355.106 150.486 355.001C150.477 354.895 150.489 354.789 150.522 354.689C150.554 354.587 150.607 354.494 150.676 354.413C150.745 354.332 150.83 354.266 150.924 354.218C151.019 354.171 151.123 354.142 151.229 354.135C151.335 354.127 151.441 354.141 151.542 354.174C154.057 354.978 156.073 354.93 157.511 353.982C159.608 352.608 159.921 349.804 159.921 349.772C159.942 349.559 160.046 349.362 160.211 349.226C160.376 349.09 160.588 349.024 160.801 349.045C161.014 349.065 161.211 349.169 161.347 349.334C161.483 349.499 161.549 349.711 161.528 349.924C161.528 350.069 161.167 353.524 158.435 355.323C157.328 356.036 156.032 356.397 154.715 356.36Z" fill="#D55454"/>
<path d="M143.452 313.217C143.287 313.221 143.126 313.171 142.994 313.073C141.783 312.16 140.369 311.556 138.873 311.311C137.377 311.066 135.844 311.188 134.405 311.667C134.209 311.747 133.989 311.746 133.794 311.665C133.598 311.583 133.443 311.428 133.361 311.233C133.278 311.037 133.276 310.816 133.356 310.619C133.436 310.421 133.591 310.264 133.787 310.18C135.477 309.605 137.283 309.451 139.047 309.731C140.811 310.011 142.48 310.717 143.91 311.787C144.084 311.909 144.203 312.095 144.241 312.304C144.279 312.513 144.232 312.729 144.11 312.904C144.033 313.005 143.933 313.085 143.819 313.14C143.704 313.194 143.578 313.221 143.452 313.217Z" fill="#D55454"/>
<path d="M212.874 455.388L196.027 457.011L190.797 436.645L200.309 423.854L212.874 455.388Z" fill="#3F0484"/>
<path d="M196.027 457.011C196.027 457.011 185.735 461.607 179.308 465.206C179.075 465.342 178.811 465.417 178.541 465.425C178.271 465.432 178.004 465.371 177.764 465.248C177.523 465.125 177.318 464.943 177.167 464.719C177.015 464.496 176.923 464.238 176.898 463.969L175.451 449.138C175.388 448.502 175.491 447.86 175.752 447.277C176.013 446.693 176.421 446.188 176.938 445.812C179.115 444.245 183.51 441.192 190.797 436.669L196.027 457.011Z" fill="#5A00E8"/>
<path d="M236.543 414.318L245.991 421.019C246.473 421.363 246.84 421.845 247.043 422.401L253.414 439.907C253.489 440.091 253.493 440.297 253.424 440.484C253.356 440.671 253.221 440.826 253.045 440.919L240.737 448.399L236.543 414.318Z" fill="#3F0484"/>
<path d="M245.09 440.178C248.838 427.535 241.626 414.247 228.983 410.5C216.339 406.752 203.052 413.964 199.304 426.607C195.557 439.251 202.768 452.538 215.412 456.286C228.055 460.033 241.342 452.822 245.09 440.178Z" fill="#FFC52E"/>
<path d="M235.914 445.944C243.551 438.307 243.551 425.925 235.914 418.289C228.277 410.652 215.896 410.652 208.259 418.289C200.622 425.925 200.622 438.307 208.259 445.944C215.896 453.58 228.277 453.58 235.914 445.944Z" fill="#5A00E8"/>
<path d="M220.683 479.354C218.016 479.354 215.301 479.226 212.609 479.041C212.503 479.034 212.4 479.006 212.306 478.959C212.211 478.912 212.126 478.846 212.057 478.766C211.987 478.686 211.934 478.594 211.901 478.493C211.868 478.393 211.854 478.287 211.862 478.181C211.869 478.076 211.897 477.972 211.944 477.878C211.991 477.783 212.057 477.698 212.136 477.629C212.216 477.559 212.309 477.507 212.41 477.473C212.51 477.44 212.616 477.426 212.722 477.434C215.381 477.619 218.064 477.723 220.699 477.747C220.913 477.747 221.117 477.832 221.268 477.983C221.418 478.133 221.503 478.338 221.503 478.551C221.503 478.658 221.482 478.763 221.44 478.862C221.399 478.96 221.338 479.05 221.262 479.125C221.186 479.199 221.095 479.258 220.996 479.298C220.896 479.337 220.79 479.356 220.683 479.354ZM228.717 479.161C228.504 479.168 228.297 479.089 228.142 478.943C227.987 478.797 227.896 478.595 227.89 478.382C227.884 478.169 227.962 477.962 228.108 477.807C228.254 477.652 228.456 477.561 228.669 477.555C231.329 477.41 234.004 477.169 236.615 476.856C236.72 476.842 236.827 476.849 236.929 476.877C237.031 476.905 237.127 476.953 237.21 477.018C237.294 477.083 237.364 477.164 237.416 477.256C237.468 477.348 237.502 477.449 237.515 477.555C237.54 477.765 237.48 477.978 237.349 478.145C237.218 478.312 237.026 478.42 236.816 478.446C234.165 478.776 231.449 479.009 228.782 479.161H228.717ZM204.663 478.245H204.559C201.916 477.9 199.224 477.442 196.581 476.984C196.476 476.965 196.375 476.924 196.285 476.866C196.195 476.808 196.117 476.732 196.057 476.644C195.996 476.555 195.953 476.456 195.931 476.351C195.908 476.246 195.907 476.138 195.926 476.032C195.946 475.927 195.986 475.826 196.044 475.736C196.103 475.646 196.178 475.568 196.267 475.507C196.355 475.447 196.455 475.404 196.56 475.382C196.665 475.359 196.773 475.358 196.878 475.377C199.489 475.867 202.149 476.285 204.768 476.623C204.981 476.636 205.18 476.734 205.321 476.895C205.461 477.055 205.533 477.265 205.519 477.478C205.505 477.691 205.407 477.89 205.247 478.031C205.086 478.172 204.876 478.243 204.663 478.229V478.245ZM244.649 477.209C244.544 477.219 244.437 477.208 244.336 477.177C244.234 477.146 244.14 477.095 244.059 477.028C243.894 476.891 243.79 476.695 243.769 476.482C243.749 476.269 243.814 476.057 243.951 475.892C244.087 475.727 244.283 475.622 244.496 475.602C247.116 475.096 249.735 474.494 252.265 473.811C252.368 473.779 252.477 473.769 252.584 473.78C252.691 473.791 252.795 473.823 252.89 473.876C252.984 473.928 253.067 473.998 253.133 474.083C253.2 474.168 253.249 474.266 253.277 474.37C253.305 474.474 253.311 474.583 253.297 474.689C253.282 474.796 253.246 474.899 253.19 474.991C253.135 475.084 253.061 475.164 252.974 475.228C252.887 475.291 252.788 475.337 252.683 475.361C250.112 476.052 247.461 476.671 244.802 477.185L244.649 477.209ZM188.876 475.297C188.812 475.305 188.748 475.305 188.684 475.297C186.081 474.662 183.461 473.939 180.899 473.16C180.792 473.135 180.691 473.088 180.603 473.022C180.515 472.957 180.442 472.874 180.387 472.778C180.332 472.683 180.298 472.578 180.285 472.469C180.273 472.36 180.283 472.25 180.315 472.145C180.347 472.04 180.4 471.942 180.471 471.859C180.542 471.775 180.629 471.707 180.727 471.658C180.826 471.609 180.933 471.581 181.043 471.576C181.152 471.57 181.262 471.587 181.365 471.625C183.903 472.429 186.498 473.104 189.069 473.738C189.282 473.764 189.476 473.873 189.609 474.042C189.742 474.211 189.802 474.425 189.776 474.638C189.751 474.851 189.641 475.045 189.473 475.178C189.304 475.311 189.089 475.371 188.876 475.345V475.297ZM260.139 472.991C259.952 472.992 259.77 472.927 259.626 472.808C259.481 472.689 259.383 472.523 259.348 472.339C259.312 472.155 259.343 471.965 259.433 471.801C259.523 471.637 259.667 471.509 259.841 471.441C262.239 470.509 264.425 469.105 266.269 467.311C266.423 467.18 266.622 467.113 266.824 467.122C267.026 467.131 267.217 467.217 267.359 467.361C267.501 467.505 267.584 467.697 267.59 467.9C267.597 468.102 267.526 468.299 267.394 468.452C265.396 470.402 263.023 471.927 260.42 472.935C260.33 472.97 260.235 472.989 260.139 472.991ZM173.507 470.629C173.414 470.629 173.322 470.613 173.234 470.581C170.727 469.673 168.197 468.677 165.722 467.624C165.621 467.586 165.529 467.528 165.451 467.453C165.373 467.378 165.311 467.288 165.268 467.189C165.226 467.089 165.204 466.982 165.203 466.874C165.203 466.766 165.225 466.659 165.267 466.56C165.309 466.46 165.371 466.37 165.449 466.295C165.527 466.22 165.619 466.161 165.72 466.123C165.821 466.084 165.929 466.066 166.037 466.07C166.145 466.074 166.251 466.1 166.349 466.146C168.759 467.191 171.306 468.171 173.78 469.071C173.958 469.135 174.107 469.26 174.202 469.423C174.296 469.587 174.33 469.778 174.298 469.964C174.265 470.15 174.168 470.319 174.023 470.441C173.879 470.562 173.696 470.629 173.507 470.629ZM158.724 464.363C158.602 464.363 158.481 464.336 158.371 464.282C155.961 463.101 153.551 461.872 151.205 460.554C151.112 460.502 151.031 460.431 150.966 460.347C150.901 460.263 150.853 460.167 150.825 460.064C150.797 459.962 150.79 459.855 150.803 459.749C150.816 459.644 150.851 459.542 150.903 459.45C150.956 459.357 151.026 459.276 151.111 459.211C151.195 459.146 151.291 459.098 151.393 459.07C151.496 459.042 151.603 459.035 151.708 459.048C151.814 459.062 151.916 459.096 152.008 459.148C154.322 460.434 156.708 461.671 159.102 462.836C159.266 462.915 159.398 463.048 159.477 463.213C159.555 463.377 159.576 463.563 159.535 463.74C159.493 463.918 159.393 464.076 159.251 464.189C159.108 464.302 158.931 464.363 158.749 464.363H158.724ZM271.202 462.001C271.102 462.001 271.004 461.982 270.912 461.944C270.814 461.906 270.723 461.849 270.647 461.775C270.57 461.702 270.509 461.614 270.466 461.517C270.423 461.42 270.401 461.316 270.399 461.21C270.397 461.104 270.416 460.998 270.455 460.9C271.381 458.471 271.923 455.912 272.061 453.316C272.068 453.21 272.094 453.107 272.141 453.012C272.187 452.916 272.251 452.831 272.33 452.761C272.409 452.691 272.502 452.637 272.602 452.603C272.702 452.568 272.807 452.554 272.913 452.56C273.019 452.567 273.122 452.594 273.217 452.64C273.312 452.686 273.397 452.75 273.467 452.829C273.538 452.909 273.591 453.001 273.626 453.101C273.66 453.201 273.675 453.307 273.668 453.412C273.522 456.176 272.948 458.899 271.965 461.486C271.903 461.641 271.795 461.773 271.656 461.864C271.516 461.954 271.352 461.999 271.186 461.992L271.202 462.001ZM144.681 456.586C144.533 456.585 144.389 456.543 144.263 456.465C141.989 455.051 139.724 453.557 137.523 452.022C137.36 451.896 137.252 451.712 137.221 451.509C137.189 451.305 137.238 451.098 137.355 450.929C137.473 450.76 137.65 450.642 137.852 450.6C138.054 450.559 138.263 450.596 138.438 450.705C140.624 452.223 142.865 453.701 145.107 455.099C145.255 455.191 145.37 455.33 145.433 455.493C145.496 455.656 145.504 455.835 145.456 456.003C145.408 456.172 145.306 456.319 145.166 456.424C145.026 456.53 144.856 456.586 144.681 456.586ZM131.513 447.403C131.333 447.404 131.157 447.344 131.015 447.234C128.902 445.587 126.797 443.868 124.772 442.116C124.682 442.051 124.606 441.968 124.55 441.872C124.493 441.776 124.457 441.669 124.444 441.559C124.431 441.448 124.441 441.336 124.474 441.23C124.506 441.123 124.56 441.024 124.633 440.94C124.706 440.856 124.795 440.787 124.896 440.739C124.996 440.691 125.106 440.665 125.217 440.661C125.328 440.658 125.439 440.677 125.542 440.719C125.646 440.761 125.739 440.823 125.817 440.903C127.825 442.63 129.906 444.334 132.003 445.964C132.135 446.067 132.232 446.208 132.28 446.369C132.328 446.529 132.325 446.7 132.271 446.858C132.217 447.017 132.115 447.154 131.979 447.252C131.843 447.349 131.68 447.402 131.513 447.403ZM272.455 446.157C272.26 446.159 272.071 446.09 271.923 445.963C271.775 445.836 271.679 445.659 271.652 445.466L271.242 442.598C271.009 440.919 270.768 439.216 270.535 437.505C270.505 437.294 270.56 437.08 270.688 436.909C270.816 436.739 271.007 436.627 271.218 436.597C271.323 436.582 271.43 436.588 271.532 436.615C271.635 436.642 271.731 436.689 271.816 436.753C271.9 436.817 271.971 436.898 272.024 436.989C272.077 437.081 272.112 437.183 272.126 437.288C272.361 438.996 272.6 440.691 272.841 442.373L273.242 445.241C273.272 445.452 273.217 445.666 273.089 445.837C272.961 446.007 272.77 446.119 272.559 446.149L272.455 446.157ZM119.333 436.91C119.128 436.911 118.929 436.834 118.779 436.693C116.843 434.837 114.931 432.909 113.091 430.957C112.941 430.806 112.857 430.603 112.857 430.39C112.857 430.178 112.941 429.975 113.091 429.824C113.166 429.749 113.254 429.689 113.352 429.648C113.45 429.607 113.555 429.586 113.661 429.586C113.767 429.586 113.872 429.607 113.97 429.648C114.068 429.689 114.157 429.749 114.232 429.824C116.055 431.76 117.943 433.664 119.856 435.496C120.005 435.647 120.089 435.85 120.089 436.062C120.089 436.275 120.005 436.478 119.856 436.629C119.724 436.786 119.537 436.886 119.333 436.91ZM270.302 430.234C270.103 430.235 269.911 430.163 269.763 430.03C269.615 429.898 269.52 429.716 269.498 429.519C269.153 426.578 268.904 423.959 268.695 421.485C268.687 421.379 268.701 421.273 268.734 421.173C268.768 421.072 268.821 420.979 268.89 420.9C268.959 420.82 269.044 420.754 269.139 420.707C269.234 420.66 269.337 420.632 269.442 420.625C269.548 420.617 269.654 420.631 269.754 420.664C269.855 420.698 269.947 420.75 270.027 420.82C270.107 420.889 270.173 420.974 270.22 421.069C270.267 421.163 270.295 421.267 270.302 421.372C270.479 423.782 270.728 426.418 271.065 429.334C271.077 429.439 271.069 429.545 271.04 429.647C271.011 429.749 270.962 429.844 270.897 429.927C270.831 430.009 270.75 430.078 270.657 430.13C270.565 430.181 270.463 430.214 270.358 430.226L270.302 430.234ZM108.327 425.22C108.209 425.222 108.093 425.197 107.986 425.148C107.879 425.1 107.784 425.028 107.708 424.939C105.973 422.891 104.269 420.778 102.647 418.649C102.529 418.479 102.481 418.27 102.513 418.065C102.546 417.861 102.656 417.677 102.82 417.551C102.985 417.426 103.192 417.369 103.397 417.392C103.603 417.416 103.791 417.517 103.924 417.676C105.531 419.781 107.218 421.878 108.937 423.895C109.005 423.976 109.057 424.069 109.089 424.169C109.121 424.27 109.133 424.376 109.124 424.481C109.115 424.586 109.085 424.689 109.037 424.783C108.988 424.876 108.922 424.96 108.841 425.028C108.697 425.15 108.515 425.219 108.327 425.22ZM269.193 414.206C268.98 414.206 268.776 414.121 268.625 413.97C268.474 413.82 268.39 413.615 268.39 413.402V412.92C268.379 410.371 268.503 407.824 268.759 405.288C268.77 405.182 268.802 405.08 268.853 404.987C268.903 404.894 268.972 404.811 269.054 404.745C269.137 404.678 269.232 404.628 269.333 404.598C269.435 404.568 269.542 404.558 269.647 404.569C269.753 404.58 269.855 404.612 269.948 404.662C270.041 404.713 270.124 404.781 270.19 404.864C270.257 404.946 270.307 405.041 270.337 405.143C270.367 405.244 270.377 405.351 270.366 405.457C270.116 407.937 269.995 410.428 270.005 412.92V413.394C270.005 413.607 269.92 413.812 269.769 413.962C269.619 414.113 269.414 414.198 269.201 414.198L269.193 414.206ZM98.5813 412.462C98.4497 412.463 98.32 412.43 98.2038 412.369C98.0875 412.307 97.9881 412.218 97.9144 412.109C96.404 409.907 94.9258 407.626 93.5278 405.336C93.4528 405.247 93.3981 405.142 93.3676 405.029C93.3371 404.916 93.3316 404.798 93.3514 404.683C93.3712 404.568 93.4159 404.459 93.4823 404.363C93.5486 404.267 93.6352 404.186 93.7358 404.127C93.8365 404.068 93.9488 404.031 94.0651 404.02C94.1813 404.009 94.2986 404.023 94.4088 404.061C94.519 404.1 94.6195 404.162 94.7032 404.244C94.787 404.325 94.8519 404.424 94.8936 404.533C96.2835 406.798 97.7457 409.056 99.2401 411.233C99.3604 411.409 99.4061 411.625 99.3669 411.835C99.3277 412.044 99.207 412.229 99.0312 412.35C98.8955 412.431 98.739 412.47 98.5813 412.462ZM90.1937 398.764C90.0492 398.765 89.9072 398.726 89.7828 398.652C89.6584 398.579 89.5561 398.473 89.4867 398.346C88.4985 396.531 87.5344 394.667 86.6185 392.811C86.5238 392.62 86.5087 392.4 86.5765 392.198C86.6443 391.996 86.7894 391.829 86.9801 391.734C87.075 391.688 87.1782 391.66 87.2837 391.654C87.3892 391.647 87.4951 391.661 87.5951 391.696C87.6951 391.73 87.7873 391.784 87.8665 391.854C87.9458 391.924 88.0103 392.009 88.0566 392.104C88.9645 393.936 89.9205 395.776 90.9007 397.575C90.9516 397.668 90.9837 397.77 90.995 397.875C91.0064 397.98 90.9969 398.087 90.9671 398.188C90.9372 398.29 90.8876 398.384 90.821 398.467C90.7545 398.549 90.6723 398.617 90.5793 398.668C90.4609 398.732 90.3283 398.765 90.1937 398.764ZM271.049 398.306C270.974 398.314 270.899 398.314 270.824 398.306C270.62 398.247 270.447 398.108 270.345 397.921C270.242 397.734 270.218 397.515 270.278 397.31C271.028 394.653 272.157 392.118 273.628 389.782C273.685 389.692 273.759 389.615 273.847 389.554C273.934 389.494 274.032 389.451 274.136 389.429C274.24 389.406 274.347 389.404 274.452 389.424C274.556 389.443 274.656 389.483 274.745 389.541C274.834 389.599 274.91 389.674 274.97 389.761C275.03 389.849 275.072 389.947 275.094 390.051C275.115 390.155 275.116 390.262 275.096 390.366C275.077 390.47 275.036 390.569 274.978 390.658C273.588 392.861 272.525 395.253 271.82 397.76C271.766 397.921 271.662 398.06 271.524 398.159C271.385 398.257 271.219 398.308 271.049 398.306ZM317.647 389.276C317.49 389.277 317.337 389.232 317.205 389.147C314.966 387.743 312.628 386.505 310.207 385.444C310.014 385.356 309.863 385.195 309.787 384.996C309.712 384.798 309.719 384.577 309.805 384.383C309.848 384.287 309.909 384.199 309.986 384.127C310.062 384.054 310.152 383.997 310.251 383.958C310.349 383.92 310.454 383.902 310.56 383.905C310.665 383.907 310.769 383.931 310.866 383.973C313.368 385.07 315.785 386.351 318.097 387.806C318.239 387.901 318.347 388.04 318.405 388.202C318.463 388.364 318.467 388.539 318.418 388.704C318.369 388.868 318.268 389.012 318.131 389.115C317.993 389.218 317.826 389.275 317.655 389.276H317.647ZM279.822 385.219C279.651 385.218 279.485 385.164 279.348 385.062C279.21 384.961 279.109 384.818 279.057 384.655C279.006 384.492 279.009 384.317 279.064 384.156C279.119 383.994 279.224 383.854 279.364 383.757C281.642 382.15 284.209 380.998 286.924 380.366C287.03 380.332 287.141 380.32 287.252 380.332C287.362 380.343 287.469 380.377 287.565 380.431C287.662 380.485 287.746 380.559 287.813 380.648C287.879 380.736 287.927 380.838 287.952 380.946C287.978 381.053 287.981 381.165 287.961 381.274C287.941 381.383 287.899 381.487 287.837 381.579C287.776 381.671 287.695 381.749 287.602 381.809C287.508 381.868 287.404 381.908 287.294 381.925C284.78 382.516 282.402 383.582 280.288 385.066C280.15 385.166 279.984 385.219 279.814 385.219H279.822ZM302.985 382.768C302.912 382.776 302.84 382.776 302.768 382.768C300.244 382.049 297.655 381.586 295.039 381.386C294.827 381.372 294.63 381.274 294.49 381.115C294.35 380.955 294.278 380.747 294.292 380.535C294.306 380.323 294.404 380.126 294.563 379.986C294.723 379.846 294.931 379.774 295.143 379.788C297.863 379.989 300.555 380.468 303.177 381.218C303.39 381.247 303.583 381.359 303.714 381.53C303.844 381.701 303.901 381.917 303.872 382.13C303.844 382.343 303.731 382.536 303.56 382.666C303.389 382.796 303.174 382.853 302.96 382.825L302.985 382.768Z" fill="#E6F0F7"/>
<path d="M233.906 445.243C241.173 438.719 241.774 427.539 235.25 420.272C228.725 413.005 217.545 412.404 210.278 418.928C203.011 425.453 202.41 436.633 208.935 443.9C215.459 451.166 226.639 451.768 233.906 445.243Z" fill="white"/>
<path d="M222.041 433.559C221.758 433.584 221.474 433.523 221.226 433.387C220.977 433.25 220.774 433.042 220.643 432.79C220.512 432.539 220.458 432.254 220.489 431.971C220.52 431.689 220.633 431.422 220.815 431.204C220.998 430.986 221.24 430.827 221.512 430.747C221.785 430.667 222.075 430.669 222.346 430.753C222.617 430.838 222.857 431 223.036 431.221C223.215 431.442 223.324 431.71 223.351 431.993C223.384 432.374 223.265 432.753 223.02 433.047C222.774 433.34 222.422 433.525 222.041 433.559ZM221.816 431.045C221.602 431.063 221.398 431.145 221.231 431.279C221.063 431.414 220.939 431.595 220.875 431.8C220.81 432.005 220.808 432.224 220.868 432.43C220.929 432.636 221.049 432.82 221.214 432.958C221.379 433.095 221.581 433.181 221.794 433.204C222.008 433.227 222.223 433.185 222.414 433.086C222.604 432.986 222.76 432.832 222.863 432.643C222.965 432.454 223.009 432.239 222.989 432.025C222.977 431.883 222.937 431.746 222.871 431.62C222.806 431.494 222.716 431.382 222.607 431.291C222.498 431.199 222.372 431.131 222.236 431.089C222.1 431.046 221.958 431.032 221.816 431.045Z" fill="#E33432"/>
<path d="M220.851 414.465L220.139 414.529L220.459 418.09L221.171 418.026L220.851 414.465Z" fill="#96D0B1"/>
<path d="M223.68 446.14L222.968 446.204L223.288 449.765L224 449.701L223.68 446.14Z" fill="#96D0B1"/>
<path d="M239.677 430.154L236.116 430.475L236.181 431.187L239.741 430.866L239.677 430.154Z" fill="#96D0B1"/>
<path d="M208.019 433.004L204.458 433.324L204.523 434.036L208.083 433.716L208.019 433.004Z" fill="#96D0B1"/>
<path d="M221.945 432.483C221.893 432.487 221.841 432.479 221.793 432.461C221.744 432.443 221.7 432.415 221.664 432.378L212.979 423.541C212.928 423.47 212.904 423.384 212.911 423.297C212.919 423.21 212.957 423.129 213.02 423.069C213.082 423.008 213.165 422.972 213.251 422.967C213.338 422.963 213.424 422.989 213.493 423.043L221.889 431.567L226.484 425.14C226.511 425.101 226.546 425.069 226.586 425.044C226.625 425.019 226.67 425.002 226.716 424.995C226.763 424.988 226.81 424.989 226.856 425C226.901 425.011 226.944 425.031 226.982 425.059C227.059 425.114 227.111 425.197 227.128 425.29C227.145 425.383 227.124 425.479 227.071 425.557L222.25 432.33C222.217 432.38 222.172 432.421 222.118 432.448C222.065 432.475 222.005 432.487 221.945 432.483Z" fill="#96D0B1"/>
<path d="M105.82 281.908L40.4226 345.868L62.8698 349.885L74.0613 366.25C74.8647 367.367 76.7447 367.222 77.1545 366.009L81.533 353.211L111.018 358.465L105.82 281.908Z" fill="#BFE3CF"/>
<path d="M62.8699 349.877L74.0614 366.25C74.8648 367.367 76.7447 367.222 77.1545 366.009L81.5331 353.211L105.82 281.908L62.8699 349.877Z" fill="#D6C0F9"/>
<path d="M62.8699 349.877L74.0614 366.25C74.8648 367.367 76.7447 367.222 77.1545 366.009L81.5331 353.211L105.82 281.908L62.8699 349.877Z" fill="#96D0B1"/>
<g opacity="0.24">
<path d="M227.456 113.425C223.738 112.989 220.275 111.315 217.626 108.671C214.976 106.027 213.294 102.568 212.85 98.8513C212.553 96.2964 212.199 94.4004 211.83 94.4004C211.46 94.4004 211.115 96.2964 210.817 98.8513C210.372 102.573 208.685 106.036 206.029 108.68C203.373 111.325 199.903 112.996 196.179 113.425C193.624 113.722 191.736 114.068 191.736 114.437C191.736 114.807 193.624 115.152 196.179 115.458C199.9 115.894 203.366 117.573 206.016 120.221C208.666 122.87 210.346 126.335 210.785 130.056C211.082 132.619 211.428 134.507 211.797 134.507C212.167 134.507 212.521 132.619 212.818 130.056C213.257 126.335 214.937 122.87 217.587 120.221C220.237 117.573 223.702 115.894 227.424 115.458C229.979 115.152 231.867 114.807 231.867 114.437C231.867 114.068 230.011 113.722 227.456 113.425Z" fill="white"/>
<path d="M188.7 137.174C185.881 136.845 183.255 135.574 181.248 133.568C179.24 131.562 177.968 128.938 177.637 126.119C177.412 124.183 177.147 122.753 176.833 122.753C176.52 122.753 176.295 124.183 176.03 126.119C175.703 128.927 174.441 131.544 172.448 133.549C170.455 135.554 167.845 136.831 165.039 137.174C163.103 137.407 161.673 137.664 161.673 137.978C161.673 138.291 163.103 138.524 165.039 138.781C167.847 139.108 170.464 140.369 172.469 142.363C174.474 144.356 175.751 146.965 176.094 149.772C176.327 151.708 176.584 153.146 176.897 153.146C177.211 153.146 177.444 151.708 177.701 149.772C178.032 146.953 179.305 144.329 181.312 142.323C183.32 140.317 185.945 139.046 188.764 138.717C190.692 138.492 192.13 138.227 192.13 137.913C192.13 137.6 190.628 137.415 188.7 137.174Z" fill="white"/>
</g>
<path d="M268.028 331.503C267.539 331.505 267.065 331.329 266.696 331.006C266.328 330.684 266.089 330.239 266.026 329.753C265.963 329.268 266.08 328.776 266.353 328.37C266.627 327.964 267.04 327.673 267.514 327.55L297.184 319.725C297.442 319.646 297.714 319.62 297.982 319.649C298.25 319.678 298.51 319.76 298.746 319.892C298.982 320.023 299.188 320.2 299.354 320.413C299.52 320.627 299.641 320.871 299.71 321.132C299.779 321.393 299.795 321.665 299.757 321.932C299.718 322.199 299.626 322.456 299.487 322.686C299.347 322.917 299.162 323.118 298.943 323.275C298.724 323.433 298.476 323.545 298.212 323.605L268.542 331.43C268.375 331.478 268.202 331.502 268.028 331.503Z" fill="white"/>
<path d="M262.935 312.173C262.52 312.175 262.115 312.048 261.775 311.811C261.436 311.573 261.177 311.236 261.037 310.847C260.896 310.457 260.879 310.033 260.989 309.633C261.098 309.233 261.329 308.877 261.649 308.614L278.215 294.819C278.417 294.643 278.652 294.509 278.906 294.424C279.16 294.34 279.429 294.307 279.696 294.328C279.963 294.35 280.223 294.424 280.461 294.547C280.699 294.67 280.909 294.839 281.081 295.045C281.252 295.251 281.381 295.489 281.459 295.745C281.537 296.001 281.563 296.27 281.536 296.537C281.508 296.803 281.428 297.061 281.299 297.296C281.171 297.531 280.996 297.738 280.786 297.904L264.22 311.707C263.859 312.008 263.404 312.173 262.935 312.173Z" fill="white"/>
<path d="M294.356 354.665C294.236 354.677 294.115 354.677 293.994 354.665L273.748 351.009C273.228 350.911 272.767 350.611 272.467 350.174C272.166 349.738 272.051 349.2 272.145 348.678C272.239 348.157 272.536 347.694 272.97 347.39C273.404 347.086 273.941 346.966 274.464 347.057L294.709 350.712C295.242 350.759 295.734 351.016 296.078 351.425C296.421 351.835 296.588 352.365 296.541 352.897C296.494 353.43 296.238 353.922 295.828 354.266C295.418 354.609 294.889 354.776 294.356 354.729V354.665Z" fill="white"/>
<path d="M45.46 484.432C45.46 484.432 67.7465 448.014 111.082 449.042C111.082 449.042 85.7107 453.661 56.539 485.75L43.9817 487.509L45.46 484.432Z" fill="#47B27C"/>
<path d="M46.3357 490.521C46.3357 490.521 78.6809 462.651 119.631 476.863C119.631 476.863 94.0582 473.513 56.4828 495.165L43.9897 493.004L46.3357 490.521Z" fill="#107075"/>
<path d="M65.92 465.374C81.0542 443.063 88.1702 421.481 81.8139 417.169C75.4576 412.858 58.0362 427.449 42.9019 449.76C27.7677 472.071 20.6518 493.653 27.0081 497.965C33.3643 502.277 50.7858 487.685 65.92 465.374Z" fill="#107075"/>
<path d="M26.9976 498.379C26.9185 498.377 26.8412 498.355 26.7726 498.315C26.687 498.252 26.6285 498.159 26.6091 498.054C26.5897 497.95 26.6108 497.842 26.6682 497.753L81.4767 416.954C81.5396 416.868 81.6328 416.81 81.7373 416.79C81.8417 416.771 81.9497 416.792 82.0391 416.849C82.1242 416.911 82.1825 417.003 82.2019 417.106C82.2214 417.209 82.2005 417.316 82.1436 417.404L27.335 498.203C27.2978 498.258 27.2475 498.303 27.1886 498.333C27.1297 498.364 27.0641 498.38 26.9976 498.379Z" fill="#05545E"/>
<path d="M50.4972 442.421C61.5455 412.871 63.6759 386.364 55.2556 383.216C46.8353 380.068 31.0529 401.471 20.0047 431.02C8.9564 460.57 6.82597 487.078 15.2463 490.226C23.6665 493.374 39.4489 471.971 50.4972 442.421Z" fill="#47B27C"/>
<path d="M15.2518 490.634H15.1072C15.0086 490.596 14.9288 490.521 14.8852 490.424C14.8416 490.328 14.8376 490.219 14.8742 490.12L45.693 407.658C45.7325 407.558 45.8092 407.478 45.9067 407.435C46.0043 407.391 46.115 407.388 46.2152 407.425C46.2647 407.442 46.3101 407.47 46.3488 407.506C46.3875 407.541 46.4186 407.585 46.4403 407.633C46.462 407.68 46.4739 407.732 46.4753 407.785C46.4766 407.837 46.4674 407.89 46.4482 407.939L15.6294 490.377C15.5991 490.452 15.547 490.517 15.4798 490.563C15.4125 490.608 15.3332 490.633 15.2518 490.634Z" fill="#107075"/>
<path d="M39.6031 425.501H39.4584C39.403 425.477 39.3531 425.441 39.3117 425.397C39.2703 425.353 39.2382 425.301 39.2174 425.244L34.9353 411.177C34.9052 411.073 34.917 410.962 34.9681 410.867C35.0192 410.773 35.1055 410.702 35.2084 410.67C35.2591 410.656 35.3121 410.651 35.3646 410.657C35.417 410.662 35.4678 410.678 35.514 410.704C35.5603 410.729 35.6011 410.763 35.6341 410.804C35.6672 410.846 35.6918 410.893 35.7065 410.944L39.8441 424.497L52.4415 417.186C52.535 417.135 52.6444 417.121 52.7474 417.148C52.8504 417.175 52.9393 417.24 52.9959 417.331C53.049 417.424 53.0636 417.534 53.0366 417.637C53.0095 417.741 52.943 417.83 52.8513 417.885L39.8039 425.453C39.7418 425.485 39.6729 425.502 39.6031 425.501Z" fill="#107075"/>
<path d="M32.8545 443.554C32.8066 443.562 32.7578 443.562 32.7099 443.554C32.6537 443.531 32.6031 443.496 32.5616 443.452C32.52 443.407 32.4884 443.355 32.4689 443.297L28.1867 429.229C28.1567 429.126 28.1685 429.015 28.2196 428.92C28.2707 428.825 28.357 428.755 28.4599 428.723C28.5105 428.708 28.5636 428.704 28.616 428.709C28.6685 428.715 28.7193 428.731 28.7655 428.757C28.8118 428.782 28.8526 428.816 28.8856 428.857C28.9186 428.898 28.9432 428.946 28.958 428.996L33.0875 442.55L45.693 435.239C45.7389 435.212 45.7896 435.194 45.8423 435.187C45.895 435.18 45.9486 435.183 46.0001 435.196C46.0516 435.21 46.0999 435.233 46.1423 435.265C46.1848 435.297 46.2204 435.337 46.2474 435.383C46.2743 435.429 46.2919 435.48 46.2991 435.533C46.3064 435.585 46.3033 435.639 46.2899 435.69C46.2764 435.742 46.253 435.79 46.2209 435.833C46.1888 435.875 46.1486 435.911 46.1027 435.938L33.0875 443.514C33.0165 443.553 32.9345 443.567 32.8545 443.554Z" fill="#107075"/>
</g>
<defs>
<clipPath id="clip0_105_5281">
<rect width="375" height="472" fill="white"/>
</clipPath>
</defs>
</svg>
