<svg width="52" height="48" viewBox="0 0 52 48" fill="none" xmlns="http://www.w3.org/2000/svg">
<path d="M32.151 38.3753C32.1577 38.3728 32.1643 38.3704 32.171 38.3676C32.4574 38.2547 32.9046 38.0602 33.4535 37.8307C33.6739 37.1875 33.8935 36.6391 34.0845 36.1954C34.6629 34.8524 35.2254 33.573 36.3724 32.232C37.0673 31.4194 37.7484 30.8514 38.2183 30.4967C38.6363 31.204 39.0682 31.8941 39.3357 32.6757C39.4796 33.0961 39.5799 33.5308 39.6287 33.9725C39.6543 34.2024 39.7913 35.0738 39.6344 35.2324C39.8236 35.041 40.5487 34.2635 40.6233 33.0262C40.7024 31.7164 39.996 30.8224 39.8343 30.6279C40.005 30.7129 40.1534 30.8082 40.283 30.9079C41.5484 31.8799 41.5808 33.6889 41.5709 34.2315C41.7521 33.9743 42.3571 33.05 42.2529 31.762C42.1314 30.2616 41.1372 29.3745 40.9337 29.2004C41.1869 29.2708 41.5127 29.3941 41.8476 29.6193C42.6172 30.1369 42.9438 30.8622 43.0652 31.1845C43.2523 31.6974 43.4394 32.2101 43.6264 32.7231C43.7786 32.4079 44.243 31.3438 43.8385 30.2237C43.3238 28.7968 41.6031 27.844 39.6537 28.0907C39.7408 27.7389 39.9782 26.5858 39.3558 25.4724C38.6161 24.1499 36.9651 23.424 35.2222 23.6905C35.5394 23.725 36.025 23.8165 36.5536 24.0828C36.8617 24.238 37.4547 24.546 37.8982 25.2171C38.4101 25.9912 38.4168 26.7854 38.4014 27.102C38.3631 26.9932 38.3 26.8357 38.2008 26.6577C37.5828 25.5504 36.4247 25.2009 36.2901 25.1625C35.8971 25.0502 35.1293 24.8303 34.3371 25.2356C33.5308 25.6482 33.249 26.4174 33.187 26.6018C33.5439 26.5051 34.9547 26.167 36.3157 26.9409C36.8769 27.2601 37.2496 27.6661 37.4786 27.9695C37.4033 27.9003 36.2155 26.8456 34.6374 27.2652C33.0043 27.6994 32.5237 29.2944 32.5023 29.3703C33.2439 28.9116 33.3225 28.8693 33.3225 28.8693C33.6637 28.7242 34.238 28.5362 34.9564 28.5649C36.329 28.6197 37.238 29.4248 37.4963 29.6713C36.7102 30.2016 35.8499 30.8815 35.0009 31.7509C33.7138 33.0684 32.8073 34.4583 32.1649 35.7262C32.0536 33.1938 31.5532 30.0686 30.1225 26.7802C29.3685 25.0475 28.4931 23.5842 27.6424 22.3798C28.1558 22.1629 29.9262 21.49 31.9553 22.1652C33.0177 22.5187 33.7493 23.1079 34.1657 23.5069C34.1657 23.5069 34.2569 23.6116 35.0823 24.6873C35.0932 24.5648 35.2783 21.9782 33.1412 20.448C31.0758 18.969 28.7609 19.852 28.6128 19.9115C29.1145 19.5953 29.8825 19.2089 30.877 19.0528C33.2887 18.6743 35.1558 19.9424 35.6211 20.2792C35.6333 19.9768 35.6498 18.7016 34.7048 17.6576C33.776 16.6318 32.536 16.5298 31.9015 16.4772C31.684 16.4591 29.8035 16.3312 28.2894 17.6041C28.046 17.8086 27.8668 18.0034 27.7504 18.1405C27.904 17.6712 28.3544 16.5182 29.5294 15.6721C30.5476 14.9389 31.582 14.8166 32.117 14.76C33.0344 14.6628 33.7924 14.7968 34.2735 14.9209C31.8829 13.5744 29.0759 13.7236 27.2651 15.2429C25.7409 16.5218 25.4466 18.3317 25.3782 18.8919C22.6761 17.4606 19.6421 17.9024 18.1004 19.6969C16.89 21.1056 16.9756 22.9105 17.0222 23.4532C17.5793 22.8092 18.1364 22.1652 18.6934 21.5212C19.0491 21.1187 19.9271 20.2419 21.335 19.9115C21.9477 19.7676 22.4906 19.7673 22.8984 19.8042C22.5057 19.9456 20.5655 20.6907 19.556 22.8092C18.6895 24.6274 19.0571 26.3059 19.1785 26.7802C19.4654 25.9842 20.5162 23.3678 22.8984 22.6483C23.1423 22.5745 23.4116 22.5173 23.7071 22.4873C23.3638 22.6816 21.839 23.5948 21.2272 25.5457C20.9688 26.3699 20.9508 27.1315 21.025 27.756C21.1167 28.5281 21.3492 29.0906 21.4429 29.3021C21.3362 29.0611 21.7052 28.3139 21.9609 27.8282C22.0415 27.675 22.1108 27.5477 22.1503 27.4707C22.4665 26.8544 22.8539 26.2766 23.2968 25.7435C24.1203 24.7524 25.132 23.9847 26.133 23.1849C26.6207 23.9595 27.2972 25.1614 27.8581 26.7263C28.7842 29.3101 28.8933 31.4823 28.9902 33.756C29.0456 35.0532 29.0511 36.8502 28.83 39C29.5955 38.9889 30.3829 38.8982 31.169 38.6937C31.4972 38.6084 31.8251 38.503 32.151 38.3753Z" fill="#FF9100"/>
<path d="M32.151 38.3753C32.1577 38.3728 32.1643 38.3704 32.171 38.3676C32.4574 38.2547 32.9046 38.0602 33.4535 37.8307C33.6739 37.1875 33.8935 36.6391 34.0845 36.1954C34.6629 34.8524 35.2254 33.573 36.3724 32.232C37.0673 31.4194 37.7484 30.8514 38.2183 30.4967C38.6363 31.204 39.0682 31.8941 39.3357 32.6757C39.4796 33.0961 39.5799 33.5308 39.6287 33.9725C39.6543 34.2024 39.7913 35.0738 39.6344 35.2324C39.8236 35.041 40.5487 34.2635 40.6233 33.0262C40.7024 31.7164 39.996 30.8224 39.8343 30.6279C40.005 30.7129 40.1534 30.8082 40.283 30.9079C41.5484 31.8799 41.5808 33.6889 41.5709 34.2315C41.7521 33.9743 42.3571 33.05 42.2529 31.762C42.1314 30.2616 41.1372 29.3745 40.9337 29.2004C41.1869 29.2708 41.5127 29.3941 41.8476 29.6193C42.6172 30.1369 42.9438 30.8622 43.0652 31.1845C43.2523 31.6974 43.4394 32.2101 43.6264 32.7231C43.7786 32.4079 44.243 31.3438 43.8385 30.2237C43.3238 28.7968 41.6031 27.844 39.6537 28.0907C39.7408 27.7389 39.9782 26.5858 39.3558 25.4724C38.6161 24.1499 36.9651 23.424 35.2222 23.6905C35.5394 23.725 36.025 23.8165 36.5536 24.0828C36.8617 24.238 37.4547 24.546 37.8982 25.2171C38.4101 25.9912 38.4168 26.7854 38.4014 27.102C38.3631 26.9932 38.3 26.8357 38.2008 26.6577C37.5828 25.5504 36.4247 25.2009 36.2901 25.1625C35.8971 25.0502 35.1293 24.8303 34.3371 25.2356C33.5308 25.6482 33.249 26.4174 33.187 26.6018C33.5439 26.5051 34.9547 26.167 36.3157 26.9409C36.8769 27.2601 37.2496 27.6661 37.4786 27.9695C37.4033 27.9003 36.2155 26.8456 34.6374 27.2652C33.0043 27.6994 32.5237 29.2944 32.5023 29.3703C33.2439 28.9116 33.3225 28.8693 33.3225 28.8693C33.6637 28.7242 34.238 28.5362 34.9564 28.5649C36.329 28.6197 37.238 29.4248 37.4963 29.6713C36.7102 30.2016 35.8499 30.8815 35.0009 31.7509C33.7138 33.0684 32.8073 34.4583 32.1649 35.7262C32.0536 33.1938 31.5532 30.0686 30.1225 26.7802C29.3685 25.0475 28.4931 23.5842 27.6424 22.3798C28.1558 22.1629 29.9262 21.49 31.9553 22.1652C33.0177 22.5187 33.7493 23.1079 34.1657 23.5069C34.1657 23.5069 34.2569 23.6116 35.0823 24.6873C35.0932 24.5648 35.2783 21.9782 33.1412 20.448C31.0758 18.969 28.7609 19.852 28.6128 19.9115C29.1145 19.5953 29.8825 19.2089 30.877 19.0528C33.2887 18.6743 35.1558 19.9424 35.6211 20.2792C35.6333 19.9768 35.6498 18.7016 34.7048 17.6576C33.776 16.6318 32.536 16.5298 31.9015 16.4772C31.684 16.4591 29.8035 16.3312 28.2894 17.6041C28.046 17.8086 27.8668 18.0034 27.7504 18.1405C27.904 17.6712 28.3544 16.5182 29.5294 15.6721C30.5476 14.9389 31.582 14.8166 32.117 14.76C33.0344 14.6628 33.7924 14.7968 34.2735 14.9209C31.8829 13.5744 29.0759 13.7236 27.2651 15.2429C25.7409 16.5218 25.4466 18.3317 25.3782 18.8919C22.6761 17.4606 19.6421 17.9024 18.1004 19.6969C16.89 21.1056 16.9756 22.9105 17.0222 23.4532C17.5793 22.8092 18.1364 22.1652 18.6934 21.5212C19.0491 21.1187 19.9271 20.2419 21.335 19.9115C21.9477 19.7676 22.4906 19.7673 22.8984 19.8042C22.5057 19.9456 20.5655 20.6907 19.556 22.8092C18.6895 24.6274 19.0571 26.3059 19.1785 26.7802C19.4654 25.9842 20.5162 23.3678 22.8984 22.6483C23.1423 22.5745 23.4116 22.5173 23.7071 22.4873C23.3638 22.6816 21.839 23.5948 21.2272 25.5457C20.9688 26.3699 20.9508 27.1315 21.025 27.756C21.1167 28.5281 21.3492 29.0906 21.4429 29.3021C21.3362 29.0611 21.7052 28.3139 21.9609 27.8282C22.0415 27.675 22.1108 27.5477 22.1503 27.4707C22.4665 26.8544 22.8539 26.2766 23.2968 25.7435C24.1203 24.7524 25.132 23.9847 26.133 23.1849C26.6207 23.9595 27.2972 25.1614 27.8581 26.7263C28.7842 29.3101 28.8933 31.4823 28.9902 33.756C29.0456 35.0532 29.0511 36.8502 28.83 39C29.5955 38.9889 30.3829 38.8982 31.169 38.6937C31.4972 38.6084 31.8251 38.503 32.151 38.3753Z" fill="url(#paint0_linear_54_30033)" fill-opacity="0.2"/>
<path d="M50.2661 16.0406C47.4989 5.99673 39.1275 0 27.8715 0H0L0.549998 1.24217C2.91216 6.5788 8.2568 10.0289 14.1654 10.0306H21.7548L21.817 10.0289C22.1052 10.0084 23.1713 9.94461 24.7699 9.94461C26.3073 9.94461 27.8741 10.0044 29.4206 10.1211L29.5724 10.1326C35.4938 10.5917 43.6064 12.1176 48.6197 16.7695L48.6839 16.8285C48.7102 16.8532 48.7368 16.8769 48.7616 16.9023L51.1475 19.2441L50.2661 16.0406ZM51.0296 27.616L51.0231 27.7124C49.5175 40.2266 40.5511 48 27.6234 48H9.84203V24.3075H10.7417C15.9474 24.3075 20.1824 28.4817 20.1824 33.6124V37.8071H28.0575C31.9361 37.8071 35.2019 36.552 37.5041 34.1766C39.8463 31.7588 41.0841 28.2648 41.0841 24.0722V23.9281C41.0841 20.6817 40.3598 17.8827 38.931 15.607L37.5969 13.4832L39.9912 14.3021C42.9618 15.3181 45.3718 16.671 47.1528 18.3252C49.7561 20.7415 51.0603 23.867 51.0296 27.616Z" fill="white"/>
<defs>
<linearGradient id="paint0_linear_54_30033" x1="30.5" y1="20.3889" x2="30.5" y2="39" gradientUnits="userSpaceOnUse">
<stop stop-color="white"/>
<stop offset="1" stop-color="white" stop-opacity="0"/>
</linearGradient>
</defs>
</svg>
